<svg width="404" height="372" viewBox="0 0 404 372" fill="none" xmlns="http://www.w3.org/2000/svg">
<g clip-path="url(#clip0_1183_13342)">
<path d="M390.273 224.335C378.864 258.843 354.29 296.66 318.134 309.006C263.497 327.608 258.616 372.337 159.453 372.078C144.976 372.103 130.54 370.556 116.398 367.464C109.484 365.93 102.675 363.956 96.0132 361.554C37.2738 340.326 5.10819 290.05 0.520523 236.276C-5.53865 165.584 42.6664 129.918 74.0963 108.915C105.526 87.9112 141.301 9.82365 238.785 9.35709C253.667 9.23087 268.514 10.8137 283.034 14.0745C316.134 21.6603 350.196 39.9942 370.658 67.8234C372.188 69.9142 373.662 72.0569 375.082 74.2514C402.677 117.105 405.819 177.3 390.273 224.335Z" fill="#FEE6C9"/>
<path opacity="0.7" d="M390.273 224.335C378.864 258.843 354.29 296.66 318.134 309.006C263.497 327.608 258.616 372.337 159.453 372.078C144.976 372.103 130.54 370.556 116.398 367.464C109.484 365.93 102.675 363.956 96.0132 361.554C37.2738 340.326 5.10819 290.05 0.520523 236.276C-5.53865 165.584 42.6664 129.918 74.0963 108.915C105.526 87.9112 141.301 9.82365 238.785 9.35709C253.667 9.23087 268.514 10.8137 283.034 14.0745C316.134 21.6603 350.196 39.9942 370.658 67.8234C372.188 69.9142 373.662 72.0569 375.082 74.2514C402.677 117.105 405.819 177.3 390.273 224.335Z" fill="white"/>
<path d="M403.563 356.69H3.88281" stroke="#263238" stroke-linecap="round" stroke-linejoin="round"/>
<path d="M18.7826 302.025C20.6523 302.837 25.2053 302.734 25.2139 302.734C25.2226 302.734 24.2272 299.762 24.1406 299.58C23.1452 297.489 19.9771 294.042 17.4063 294.396C16.9804 294.465 16.5739 294.624 16.2133 294.86C15.8527 295.097 15.5461 295.406 15.3133 295.769C15.0806 296.132 14.927 296.539 14.8626 296.965C14.7981 297.391 14.8243 297.826 14.9393 298.241C15.3721 300.012 17.1985 301.334 18.7826 302.025Z" fill="#263238"/>
<path d="M20.3735 315.21C22.3037 315.486 26.372 314.346 26.701 314.216C27.3678 316.542 28.192 318.819 29.1679 321.033C29.7219 322.32 30.3278 323.625 30.9511 324.886L30.1893 323.798C28.6745 322.07 24.7101 319.556 22.3211 320.575C21.9335 320.754 21.5877 321.012 21.3056 321.332C21.0235 321.652 20.8113 322.028 20.6826 322.434C20.5539 322.84 20.5115 323.269 20.5582 323.693C20.6048 324.117 20.7394 324.526 20.9534 324.895C21.819 326.502 23.957 327.297 25.6709 327.539C27.3848 327.781 30.8645 326.856 31.8166 326.597L32.4918 328.066C33.669 330.407 34.8549 332.74 35.9542 335.064C36.3437 335.885 36.69 336.706 37.0448 337.518L36.387 336.576C34.8635 334.848 30.9078 332.334 28.5101 333.354C28.1224 333.533 27.7764 333.79 27.4945 334.111C27.2125 334.431 27.0007 334.807 26.8728 335.213C26.7448 335.62 26.7035 336.049 26.7514 336.473C26.7993 336.896 26.9355 337.305 27.1511 337.673C28.0167 339.281 30.146 340.067 31.8599 340.317C33.5738 340.568 36.7505 339.73 37.8412 339.453C38.1788 340.317 38.5164 341.181 38.802 341.985C38.9924 342.564 39.2088 343.108 39.356 343.713C39.5031 344.318 39.6763 344.871 39.8407 345.441C40.1091 346.547 40.3861 347.687 40.6198 348.776C40.7842 349.527 40.9314 350.253 41.0785 350.979C40.7063 350.158 39.9359 348.577 39.858 348.447C38.6289 346.486 35.0886 343.428 32.5697 344.067C32.1552 344.186 31.7702 344.39 31.4398 344.667C31.1094 344.944 30.8409 345.287 30.6516 345.673C30.4623 346.06 30.3565 346.482 30.341 346.913C30.3255 347.343 30.4006 347.772 30.5615 348.171C31.1934 349.899 33.1583 350.988 34.8203 351.497C36.6467 352.05 40.6804 351.541 41.1824 351.497C41.4248 352.698 41.6498 353.873 41.8403 354.953C41.9441 355.541 42.0393 356.085 42.1259 356.681H43.7446C43.6234 356.042 43.5022 355.385 43.3637 354.703C43.1213 353.476 42.8443 352.171 42.4981 350.841C43.7118 350.353 44.8967 349.796 46.0471 349.173C47.3801 350.607 50.7819 352.292 51.2406 352.508C50.7819 353.64 50.3144 354.746 49.8643 355.774L49.4662 356.681H51.1974L51.3272 356.379C51.8033 355.221 52.288 353.977 52.7727 352.698C53.2575 352.802 57.2565 353.614 59.1176 353.191C60.8488 352.811 62.8569 351.86 63.61 350.193C63.801 349.804 63.9075 349.38 63.9226 348.948C63.9376 348.515 63.8609 348.085 63.6974 347.684C63.5339 347.284 63.2873 346.922 62.9739 346.623C62.6605 346.324 62.2873 346.095 61.8788 345.951C59.4205 345.087 55.6638 347.912 54.2875 349.778C54.201 349.89 53.4219 351.178 52.9978 351.998C53.1969 351.48 53.3873 350.97 53.5864 350.426C53.9759 349.363 54.3395 348.283 54.729 347.126L55.2484 345.398C55.4301 344.827 55.5513 344.205 55.7071 343.6C56.0447 342.201 56.313 340.758 56.5727 339.281C57.5076 339.617 60.9007 340.784 62.6319 340.663C64.3631 340.542 66.5271 339.911 67.5312 338.373C67.7777 338.02 67.9471 337.619 68.0284 337.196C68.1098 336.773 68.1012 336.337 68.0033 335.918C67.9054 335.499 67.7203 335.104 67.46 334.761C67.1998 334.417 66.8701 334.132 66.4925 333.924C64.19 332.74 60.0438 334.926 58.4078 336.559C58.3039 336.663 57.2565 337.967 56.6766 338.693C56.8151 337.829 56.9536 336.965 57.0661 336.058C57.3864 333.466 57.6287 330.874 57.8798 328.282C57.9577 327.478 58.0442 326.684 58.1308 325.889C58.4597 326.018 62.4155 327.487 64.3631 327.349C66.0943 327.228 68.2583 326.597 69.2537 325.059C69.5019 324.707 69.673 324.306 69.7557 323.883C69.8384 323.46 69.8309 323.025 69.7337 322.605C69.6365 322.185 69.4518 321.791 69.1916 321.447C68.9315 321.103 68.6016 320.818 68.2236 320.61C65.9125 319.426 61.775 321.612 60.1303 323.202C60.0091 323.331 58.503 325.206 58.1481 325.699C58.3299 323.971 58.529 322.243 58.7973 320.515C59.1498 318.204 59.65 315.919 60.2948 313.672C60.4506 313.724 64.5708 315.279 66.5617 315.141C68.2929 315.02 70.4569 314.389 71.461 312.851C71.7075 312.498 71.8769 312.096 71.9583 311.673C72.0396 311.25 72.031 310.815 71.9331 310.396C71.8352 309.976 71.6501 309.582 71.3898 309.238C71.1296 308.895 70.7999 308.61 70.4223 308.401C68.1198 307.218 63.9822 309.404 62.3376 311.037C62.2078 311.166 60.6064 313.188 60.3208 313.577C60.3208 313.447 60.3813 313.309 60.4246 313.179C61.1344 310.943 62.0441 308.774 63.1426 306.699C63.7312 305.55 64.3631 304.479 64.995 303.451C65.7394 303.814 69.1239 305.455 70.933 305.533C72.7421 305.611 74.8887 305.205 76.0486 303.805C76.3328 303.481 76.5457 303.101 76.6735 302.69C76.8013 302.279 76.8412 301.846 76.7906 301.418C76.74 300.99 76.6001 300.578 76.3798 300.208C76.1596 299.838 75.8639 299.518 75.512 299.269C73.348 297.835 68.994 299.554 67.1763 300.997C67.0811 301.083 66.1635 301.991 65.5143 302.656L66.3799 301.282C67.4706 299.649 68.5612 298.224 69.548 296.962C70.1106 296.245 70.63 295.614 71.1234 295.027C72.0409 295.027 75.7111 294.906 77.3211 294.163C78.9311 293.42 80.6796 292.055 81.0605 290.266C81.164 289.846 81.1774 289.408 81.0998 288.982C81.0222 288.556 80.8554 288.151 80.6103 287.794C80.3652 287.437 80.0472 287.136 79.6773 286.909C79.3074 286.683 78.8938 286.538 78.4637 286.482C75.8669 286.206 72.8113 289.739 71.8678 291.856C71.7899 292.037 70.8464 295.044 70.8897 295.044H70.9416C70.4569 295.597 69.9375 296.193 69.3836 296.859C68.3795 298.103 67.2455 299.511 66.1202 301.127C64.9046 302.872 63.7918 304.687 62.7877 306.561C61.6335 308.637 60.666 310.812 59.8966 313.058V313.145C59.8966 312.384 59.8966 310.259 59.8966 310.095C59.6023 307.805 57.672 303.537 55.1185 303.071C54.6919 303.003 54.2558 303.027 53.8388 303.139C53.4218 303.251 53.0331 303.45 52.6983 303.722C52.3634 303.995 52.0898 304.334 51.8953 304.719C51.7008 305.104 51.5898 305.526 51.5696 305.956C51.4224 307.779 52.7468 309.602 54.0365 310.76C55.4994 312.056 59.5417 313.309 59.862 313.413C59.1297 315.719 58.5514 318.071 58.1308 320.454C57.8798 321.845 57.672 323.245 57.4816 324.653C57.4816 323.997 57.4816 323.409 57.4816 323.331C57.1873 321.033 55.257 316.774 52.7035 316.307C52.278 316.24 51.8431 316.263 51.4271 316.375C51.0111 316.486 50.6234 316.685 50.2894 316.956C49.9553 317.228 49.6823 317.566 49.4883 317.95C49.2942 318.334 49.1835 318.755 49.1632 319.184C48.9382 321.016 50.2452 322.882 51.5349 323.988C52.8247 325.094 56.2698 326.303 57.1786 326.58C57.118 327.124 57.0401 327.66 56.9795 328.204C56.6679 330.796 56.365 333.388 55.9928 335.98C55.8629 336.844 55.6985 337.751 55.5427 338.624C55.5427 338.045 55.5427 337.553 55.5427 337.475C55.2484 335.185 53.3181 330.917 50.7646 330.451C50.3393 330.382 49.9045 330.404 49.4881 330.514C49.0718 330.624 48.6833 330.82 48.3478 331.09C48.0123 331.359 47.7374 331.696 47.5409 332.079C47.3444 332.462 47.2306 332.881 47.207 333.31C47.0512 335.133 48.3755 336.956 49.6739 338.114C50.9723 339.272 54.0711 340.309 55.1531 340.654C54.9627 341.518 54.7809 342.443 54.5559 343.307C54.3914 343.886 54.2702 344.456 54.0711 345.035C53.8721 345.614 53.6989 346.175 53.5172 346.763C53.1276 347.834 52.7295 348.94 52.3226 349.977C52.0456 350.694 51.7687 351.376 51.457 352.068C51.5955 351.204 51.8379 349.432 51.8379 349.286C51.8088 347.248 51.2575 345.252 50.2365 343.488C50.2624 343.264 50.2624 343.038 50.2365 342.814C50.1802 342.389 50.0351 341.979 49.8108 341.613C49.5864 341.247 49.2877 340.931 48.9338 340.687C48.5799 340.443 48.1788 340.275 47.7561 340.195C47.3335 340.115 46.8987 340.125 46.4799 340.222C43.9696 340.896 42.3769 345.294 42.2644 347.601C42.2644 347.739 42.3423 349.225 42.4116 350.193C42.2904 349.648 42.1692 349.113 42.0393 348.551C41.771 347.445 41.4767 346.348 41.1737 345.164L40.6544 343.436C40.4899 342.857 40.2476 342.27 40.0485 341.708C39.5464 340.352 38.9838 339.004 38.3779 337.656C39.3473 337.432 42.7838 336.55 44.1687 335.496C45.5537 334.442 46.9992 332.723 46.9819 330.891C46.9942 330.461 46.9155 330.032 46.751 329.634C46.5866 329.236 46.3399 328.877 46.0272 328.58C45.7144 328.284 45.3426 328.056 44.9359 327.912C44.5292 327.769 44.0968 327.712 43.6667 327.746C41.0699 328.031 38.8453 332.135 38.3779 334.399C38.3779 334.546 38.1961 336.205 38.1268 337.121C37.7546 336.317 37.3911 335.514 36.9929 334.71C35.8417 332.386 34.5952 330.079 33.3747 327.798C32.9939 327.09 32.6303 326.381 32.2581 325.673C32.6043 325.595 36.7159 324.645 38.2653 323.452C39.633 322.407 41.0958 320.679 41.0785 318.856C41.0908 318.425 41.0122 317.997 40.8477 317.599C40.6832 317.201 40.4365 316.842 40.1238 316.545C39.8111 316.248 39.4393 316.021 39.0326 315.877C38.6259 315.733 38.1934 315.677 37.7633 315.711C35.1665 315.987 32.9419 320.1 32.4658 322.364C32.4658 322.536 32.2148 324.956 32.1889 325.543C31.3752 323.979 30.5788 322.415 29.8604 320.843C28.8633 318.683 28.0074 316.461 27.2982 314.19C27.4627 314.19 31.7561 313.179 33.3574 311.97C34.7337 310.916 36.1879 309.196 36.1706 307.365C36.183 306.935 36.1044 306.507 35.9398 306.109C35.7752 305.711 35.5284 305.353 35.2155 305.057C34.9026 304.761 34.5307 304.534 34.124 304.391C33.7173 304.248 33.285 304.193 32.8554 304.228C30.2586 304.505 28.034 308.609 27.5666 310.881C27.5233 311.054 27.2982 313.629 27.2896 314.104L27.1511 313.715C26.5101 311.454 26.0698 309.141 25.8354 306.803C25.6969 305.516 25.6276 304.28 25.593 303.071C26.4067 302.976 30.146 302.474 31.6522 301.541C33.1583 300.608 34.777 299.096 34.9588 297.273C35.0147 296.849 34.9807 296.417 34.859 296.007C34.7374 295.597 34.5308 295.216 34.2526 294.89C33.9743 294.565 33.6307 294.301 33.2439 294.116C32.8571 293.931 32.4358 293.829 32.0071 293.817C29.4103 293.817 26.7356 297.645 26.0171 299.865C25.9739 299.986 25.7142 301.248 25.5411 302.163C25.5411 301.619 25.5411 301.058 25.5411 300.539C25.5411 298.578 25.6709 296.781 25.7921 295.191C25.87 294.327 25.9566 293.463 26.0431 292.711C26.7962 292.202 29.7998 290.119 30.726 288.573C31.6522 287.026 32.362 284.961 31.6955 283.259C31.5491 282.855 31.3194 282.485 31.021 282.175C30.7227 281.864 30.3625 281.62 29.9636 281.457C29.5647 281.294 29.136 281.217 28.7052 281.229C28.2745 281.242 27.8512 281.345 27.4627 281.531C25.1516 282.724 24.5456 287.363 24.9265 289.644C24.9265 289.843 25.7921 292.867 25.87 292.841H25.9219C25.8181 293.575 25.7142 294.362 25.6276 295.217C25.4632 296.807 25.2987 298.604 25.2554 300.574C25.1809 302.695 25.2329 304.818 25.4112 306.933C25.5951 309.301 25.9891 311.649 26.5884 313.948V314.026C26.1816 313.387 24.9784 311.633 24.8572 311.512C23.3425 309.784 19.378 307.27 16.989 308.281C16.6013 308.459 16.2553 308.717 15.9734 309.038C15.6914 309.358 15.4796 309.734 15.3517 310.14C15.2237 310.547 15.1824 310.976 15.2303 311.4C15.2782 311.823 15.4144 312.232 15.63 312.6C16.5302 314.164 18.6423 314.959 20.3735 315.21Z" fill="#263238"/>
<path d="M64.8907 303.01C64.8907 303.01 65.7563 299.986 65.7563 299.787C66.0766 297.498 65.3495 292.876 63.0037 291.752C62.6102 291.576 62.1839 291.484 61.7526 291.483C61.3213 291.482 60.8945 291.572 60.5002 291.746C60.1058 291.92 59.7526 292.176 59.4636 292.495C59.1747 292.815 58.9563 293.192 58.8229 293.601C58.1996 295.329 58.996 297.429 59.9308 298.88C61.0561 300.6 64.8907 303.01 64.8907 303.01Z" fill="#263238"/>
<path d="M141.725 331.453C142.692 331.71 143.693 331.82 144.694 331.781C144.694 331.781 144.244 330.407 144.2 330.33C143.742 329.362 142.279 327.738 141.093 327.928C140.896 327.96 140.709 328.034 140.542 328.144C140.376 328.254 140.235 328.397 140.128 328.565C140.021 328.733 139.951 328.921 139.921 329.118C139.892 329.315 139.905 329.516 139.959 329.707C140.108 330.109 140.343 330.474 140.648 330.775C140.953 331.077 141.321 331.308 141.725 331.453Z" fill="#263238"/>
<path d="M142.424 337.57C143.417 337.563 144.403 337.409 145.35 337.112C145.658 338.184 146.037 339.234 146.484 340.257C146.743 340.853 147.02 341.441 147.306 342.037C147.142 341.786 146.986 341.562 146.96 341.536C146.259 340.723 144.432 339.574 143.324 340.041C143.143 340.123 142.981 340.243 142.849 340.392C142.717 340.542 142.618 340.717 142.559 340.908C142.5 341.098 142.483 341.298 142.507 341.496C142.531 341.694 142.598 341.884 142.701 342.054C142.951 342.404 143.275 342.695 143.651 342.906C144.027 343.116 144.444 343.241 144.874 343.272C145.837 343.277 146.795 343.131 147.713 342.84C147.825 343.065 147.929 343.298 148.042 343.523C148.587 344.603 149.133 345.674 149.643 346.745C149.816 347.126 149.981 347.506 150.145 347.886C149.989 347.661 149.86 347.471 149.834 347.445C149.141 346.642 147.306 345.493 146.207 345.959C146.025 346.042 145.863 346.161 145.731 346.311C145.599 346.46 145.5 346.635 145.441 346.825C145.381 347.015 145.362 347.215 145.385 347.413C145.408 347.611 145.473 347.801 145.575 347.972C145.827 348.32 146.152 348.61 146.527 348.82C146.902 349.03 147.319 349.157 147.748 349.191C148.684 349.196 149.615 349.056 150.509 348.776C150.665 349.173 150.82 349.562 150.959 349.951C151.097 350.34 151.141 350.469 151.21 350.737C151.279 351.005 151.357 351.273 151.435 351.532C151.556 352.042 151.686 352.569 151.79 353.07C151.868 353.424 151.937 353.752 152.006 354.089C151.833 353.709 151.478 352.983 151.444 352.923C150.872 352.016 149.236 350.607 148.076 350.901C147.884 350.955 147.706 351.048 147.553 351.175C147.399 351.303 147.275 351.461 147.188 351.64C147.1 351.818 147.051 352.014 147.045 352.213C147.039 352.411 147.074 352.609 147.15 352.793C147.347 353.176 147.624 353.512 147.963 353.778C148.303 354.043 148.696 354.232 149.115 354.331C150.088 354.478 151.077 354.478 152.05 354.331C152.162 354.884 152.266 355.429 152.361 355.938C152.404 356.215 152.448 356.465 152.491 356.725H153.227C153.175 356.431 153.123 356.128 153.054 355.809C152.941 355.247 152.811 354.642 152.673 354.029C153.234 353.802 153.783 353.545 154.317 353.26C155.042 353.876 155.845 354.393 156.706 354.798C156.49 355.325 156.274 355.826 156.066 356.31L155.884 356.725H156.663C156.663 356.673 156.706 356.63 156.724 356.586C156.94 356.051 157.165 355.48 157.39 354.858C158.351 355.085 159.341 355.161 160.325 355.083C160.75 355.017 161.155 354.86 161.513 354.621C161.87 354.382 162.171 354.068 162.393 353.701C162.482 353.523 162.533 353.329 162.541 353.131C162.549 352.932 162.516 352.734 162.442 352.55C162.369 352.366 162.257 352.199 162.114 352.061C161.972 351.922 161.801 351.816 161.614 351.748C160.472 351.359 158.741 352.655 158.152 353.476C158.109 353.528 157.763 354.124 157.555 354.504C157.641 354.262 157.737 354.029 157.823 353.778C158.005 353.286 158.169 352.785 158.351 352.249C158.429 351.99 158.516 351.722 158.593 351.454C158.671 351.186 158.732 350.91 158.801 350.59C158.957 349.942 159.087 349.277 159.199 348.603C160.088 348.955 161.025 349.171 161.978 349.242C162.409 349.241 162.834 349.146 163.224 348.964C163.614 348.782 163.96 348.517 164.237 348.188C164.352 348.025 164.431 347.84 164.469 347.645C164.508 347.449 164.504 347.248 164.459 347.054C164.414 346.86 164.329 346.678 164.209 346.519C164.088 346.36 163.936 346.228 163.761 346.132C162.696 345.588 160.783 346.599 160.022 347.35C159.978 347.393 159.494 347.998 159.234 348.335C159.303 347.926 159.364 347.52 159.416 347.117C159.563 345.925 159.675 344.724 159.797 343.523C159.797 343.151 159.866 342.788 159.909 342.417C160.828 342.785 161.796 343.012 162.783 343.091C163.214 343.091 163.64 342.997 164.03 342.814C164.42 342.632 164.766 342.367 165.042 342.037C165.157 341.874 165.236 341.689 165.274 341.493C165.313 341.298 165.309 341.096 165.264 340.902C165.219 340.708 165.134 340.526 165.014 340.367C164.893 340.208 164.741 340.077 164.566 339.98C163.501 339.436 161.588 340.447 160.835 341.199C160.775 341.259 160.082 342.123 159.918 342.356C159.996 341.544 160.091 340.741 160.212 339.946C160.377 338.881 160.608 337.828 160.905 336.792C161.829 337.159 162.804 337.386 163.796 337.466C164.227 337.467 164.653 337.373 165.043 337.191C165.434 337.008 165.779 336.743 166.055 336.412C166.17 336.249 166.249 336.064 166.287 335.869C166.325 335.673 166.322 335.472 166.277 335.278C166.232 335.084 166.147 334.901 166.026 334.743C165.906 334.584 165.754 334.452 165.579 334.356C164.514 333.812 162.61 334.822 161.848 335.574C161.788 335.635 161.043 336.568 160.922 336.749C160.922 336.689 160.922 336.619 160.965 336.559C161.296 335.528 161.716 334.528 162.22 333.57C162.497 333.043 162.783 332.55 163.086 332.075C163.945 332.529 164.867 332.852 165.821 333.034C166.25 333.082 166.684 333.034 167.093 332.895C167.501 332.757 167.874 332.53 168.184 332.23C168.317 332.082 168.417 331.907 168.477 331.718C168.537 331.528 168.556 331.328 168.533 331.131C168.51 330.933 168.446 330.743 168.344 330.572C168.242 330.401 168.105 330.254 167.942 330.14C166.938 329.474 164.93 330.269 164.09 330.934L163.32 331.703L163.726 331.073C164.229 330.312 164.739 329.656 165.189 329.077C165.449 328.749 165.691 328.455 165.916 328.213C166.887 328.222 167.852 328.085 168.782 327.807C169.183 327.65 169.546 327.408 169.845 327.098C170.144 326.788 170.372 326.416 170.513 326.01C170.558 325.818 170.563 325.619 170.526 325.425C170.49 325.231 170.414 325.047 170.302 324.884C170.19 324.722 170.046 324.584 169.878 324.48C169.71 324.377 169.522 324.309 169.327 324.282C168.132 324.152 166.73 325.785 166.28 326.761C166.28 326.848 165.804 328.23 165.83 328.23C165.605 328.489 165.362 328.766 165.111 329.094C164.644 329.664 164.125 330.321 163.605 331.064C163.03 331.859 162.507 332.69 162.039 333.552C161.502 334.508 161.055 335.512 160.706 336.55C160.706 336.205 160.706 335.22 160.706 335.151C160.567 334.088 159.684 332.118 158.498 331.902C158.302 331.872 158.101 331.883 157.909 331.935C157.717 331.987 157.538 332.078 157.383 332.204C157.229 332.329 157.103 332.486 157.013 332.663C156.924 332.84 156.872 333.034 156.862 333.233C156.879 333.663 156.991 334.085 157.188 334.469C157.385 334.852 157.664 335.188 158.005 335.453C158.837 335.991 159.744 336.405 160.697 336.68C160.356 337.743 160.09 338.829 159.901 339.929C159.788 340.568 159.693 341.216 159.606 341.864C159.606 341.562 159.606 341.294 159.606 341.259C159.468 340.196 158.585 338.227 157.399 338.011C157.202 337.98 157.001 337.991 156.809 338.043C156.617 338.095 156.438 338.187 156.284 338.312C156.13 338.438 156.004 338.594 155.914 338.771C155.824 338.949 155.773 339.143 155.763 339.341C155.78 339.772 155.891 340.194 156.089 340.577C156.286 340.961 156.565 341.297 156.906 341.562C157.707 342.088 158.582 342.492 159.502 342.762C159.502 343.013 159.442 343.264 159.407 343.514C159.269 344.715 159.13 345.907 158.957 347.082C158.896 347.497 158.819 347.903 158.749 348.301C158.749 348.033 158.749 347.808 158.749 347.774C158.611 346.711 157.719 344.75 156.542 344.534C156.345 344.502 156.144 344.512 155.951 344.563C155.759 344.615 155.579 344.706 155.424 344.832C155.27 344.958 155.144 345.115 155.054 345.293C154.965 345.471 154.914 345.665 154.906 345.864C154.923 346.294 155.035 346.714 155.232 347.096C155.429 347.479 155.708 347.813 156.049 348.076C156.823 348.6 157.676 348.997 158.576 349.251C158.49 349.666 158.403 350.115 158.299 350.478C158.221 350.746 158.169 351.005 158.074 351.273C157.979 351.541 157.91 351.8 157.823 352.059C157.641 352.551 157.46 353.061 157.269 353.545C157.139 353.873 157.018 354.193 156.888 354.513C156.949 354.098 157.061 353.295 157.061 353.225C157.049 352.285 156.796 351.362 156.326 350.547C156.326 350.443 156.326 350.34 156.326 350.236C156.301 350.039 156.234 349.85 156.131 349.68C156.028 349.511 155.891 349.364 155.728 349.251C155.564 349.138 155.379 349.06 155.184 349.023C154.989 348.986 154.788 348.99 154.594 349.035C153.435 349.346 152.699 351.376 152.647 352.439C152.647 352.5 152.69 353.191 152.716 353.623C152.664 353.372 152.604 353.122 152.543 352.871C152.422 352.353 152.283 351.852 152.145 351.307C152.058 351.039 151.98 350.78 151.902 350.512C151.825 350.245 151.712 349.977 151.625 349.7C151.392 349.078 151.132 348.456 150.855 347.834C151.791 347.642 152.691 347.304 153.521 346.832C153.881 346.594 154.184 346.28 154.41 345.913C154.635 345.546 154.778 345.134 154.828 344.706C154.832 344.508 154.795 344.312 154.718 344.129C154.642 343.946 154.527 343.781 154.383 343.645C154.239 343.509 154.067 343.405 153.88 343.339C153.693 343.274 153.494 343.248 153.296 343.264C152.102 343.393 151.063 345.285 150.846 346.331C150.846 346.4 150.768 347.195 150.734 347.584C150.561 347.212 150.396 346.84 150.215 346.469C149.678 345.398 149.107 344.335 148.544 343.264L148.025 342.287C148.994 342.086 149.928 341.739 150.794 341.259C151.154 341.021 151.457 340.707 151.683 340.34C151.909 339.973 152.051 339.561 152.102 339.134C152.106 338.936 152.068 338.739 151.992 338.556C151.915 338.373 151.801 338.209 151.656 338.073C151.512 337.937 151.341 337.832 151.153 337.767C150.966 337.701 150.767 337.675 150.569 337.691C149.375 337.82 148.336 339.713 148.12 340.758C148.12 340.836 148.007 341.942 147.999 342.227C147.618 341.501 147.254 340.784 146.917 340.058C146.462 339.076 146.072 338.066 145.748 337.034C146.723 336.837 147.663 336.493 148.535 336.015C148.892 335.774 149.193 335.459 149.419 335.093C149.644 334.726 149.788 334.316 149.842 333.889C149.848 333.69 149.811 333.491 149.735 333.307C149.658 333.122 149.543 332.956 149.398 332.819C149.252 332.682 149.079 332.577 148.89 332.511C148.702 332.446 148.501 332.421 148.302 332.438C147.116 332.567 146.077 334.459 145.861 335.505C145.861 335.591 145.739 336.784 145.739 337C145.713 336.941 145.689 336.88 145.67 336.818C145.377 335.775 145.174 334.708 145.064 333.63C145.004 333.034 144.969 332.464 144.952 331.902C145.92 331.809 146.868 331.57 147.765 331.194C148.148 330.996 148.483 330.717 148.748 330.377C149.012 330.037 149.2 329.643 149.297 329.224C149.324 329.027 149.309 328.826 149.253 328.635C149.197 328.444 149.101 328.267 148.972 328.116C148.843 327.964 148.684 327.841 148.504 327.755C148.324 327.669 148.129 327.622 147.929 327.617C146.735 327.617 145.497 329.345 145.168 330.399C145.168 330.459 145.03 331.038 144.943 331.461C144.943 331.211 144.943 330.952 144.943 330.71C144.943 329.803 145.004 328.982 145.056 328.247C145.056 327.824 145.133 327.453 145.177 327.098C145.989 326.575 146.715 325.931 147.332 325.189C147.583 324.838 147.753 324.436 147.831 324.012C147.909 323.588 147.892 323.152 147.782 322.735C147.715 322.548 147.608 322.377 147.471 322.234C147.333 322.09 147.167 321.977 146.982 321.901C146.798 321.825 146.6 321.789 146.401 321.794C146.202 321.799 146.006 321.846 145.826 321.932C144.761 322.485 144.484 324.627 144.657 325.681C144.657 325.768 145.082 327.167 145.099 327.15C145.056 327.487 145.004 327.85 144.96 328.247C144.891 328.982 144.813 329.811 144.796 330.718C144.76 331.695 144.783 332.673 144.865 333.647C144.95 334.741 145.133 335.826 145.41 336.887C145.22 336.594 144.666 335.79 144.623 335.73C143.922 334.917 142.087 333.768 140.987 334.235C140.806 334.317 140.644 334.437 140.512 334.586C140.38 334.735 140.281 334.911 140.221 335.101C140.162 335.291 140.143 335.491 140.166 335.689C140.189 335.886 140.254 336.077 140.355 336.248C140.587 336.602 140.891 336.903 141.247 337.131C141.604 337.359 142.005 337.509 142.424 337.57Z" fill="#263238"/>
<path d="M163.005 331.919C163.005 331.919 163.395 330.52 163.403 330.433C163.55 329.371 163.213 327.245 162.131 326.718C161.948 326.638 161.751 326.598 161.552 326.599C161.353 326.6 161.156 326.642 160.974 326.723C160.792 326.805 160.63 326.923 160.496 327.071C160.363 327.219 160.262 327.393 160.201 327.582C160.104 328.001 160.1 328.436 160.188 328.856C160.276 329.277 160.455 329.673 160.711 330.019C161.379 330.761 162.152 331.401 163.005 331.919Z" fill="#263238"/>
<path d="M179.924 15.5432C174.678 18.5931 172.722 24.5201 171.752 27.3972C170.445 31.3283 165.858 24.8052 156.682 28.0538C147.507 31.3024 146.191 38.4822 144.226 40.4434C142.261 42.4047 129.156 47.6405 129.156 47.6405H260.727" stroke="#263238" stroke-linecap="round" stroke-linejoin="round"/>
<path d="M267.24 47.6405H283.175C283.175 47.6405 285.772 33.2464 279.903 26.0407C274.035 18.8351 260.86 29.3153 256.965 18.8437C256.965 18.8437 245.167 1.83171 230.746 0.527088C216.325 -0.777539 210.431 10.342 205.843 16.2258C201.255 22.1096 198.632 13.6338 187.492 13.6338" stroke="#263238" stroke-linecap="round" stroke-linejoin="round"/>
<path d="M204.293 35.9507C202.685 37.5047 201.63 39.5405 201.289 41.7481" stroke="#263238" stroke-linecap="round" stroke-linejoin="round"/>
<path d="M254.339 24.7448C254.339 24.7448 245.164 15.5865 234.673 16.2345C224.182 16.8825 228.12 29.324 223.533 33.2465C218.945 37.169 213.699 31.9332 207.805 33.9031" stroke="#263238" stroke-linecap="round" stroke-linejoin="round"/>
<path d="M48.4587 56.4014C44.9963 58.3972 43.7412 62.2592 43.118 64.1168C42.2524 66.7088 39.2661 62.3888 33.2762 64.5488C27.2862 66.7088 26.4206 71.383 25.1396 72.6703C23.8585 73.9577 15.2891 77.3704 15.2891 77.3704H101.226" stroke="#263238" stroke-linecap="round" stroke-linejoin="round"/>
<path d="M105.499 77.3703H115.886C115.886 77.3703 117.617 67.9615 113.748 63.2614C109.879 58.5613 101.327 65.4041 98.7557 58.5613C98.7557 58.5613 91.0519 47.4503 81.6342 46.595C72.2165 45.7396 68.3819 53.0058 65.387 56.8506C62.392 60.6953 60.6781 55.1226 53.3984 55.1226" stroke="#263238" stroke-linecap="round" stroke-linejoin="round"/>
<path d="M64.3737 69.7327C63.3136 70.7466 62.6145 72.0785 62.3828 73.5256" stroke="#263238" stroke-linecap="round" stroke-linejoin="round"/>
<path d="M97.0716 62.406C97.0716 62.406 91.0817 56.4272 84.2262 56.8506C77.3706 57.2739 79.9501 65.4041 76.9465 67.9615C73.9429 70.5189 70.5238 67.0975 66.6719 68.3935" stroke="#263238" stroke-linecap="round" stroke-linejoin="round"/>
<path d="M223.433 90.8315C221.044 92.2226 220.144 94.9182 219.711 96.2142C219.114 98.0027 217.028 95.0219 212.847 96.5166C208.666 98.0113 208.069 101.286 207.169 102.176C206.269 103.066 200.305 105.459 200.305 105.459H260.23" stroke="#263238" stroke-linecap="round" stroke-linejoin="round"/>
<path d="M263.213 105.459H270.475C270.475 105.459 271.67 98.9011 268.978 95.6179C266.286 92.3348 260.322 97.1126 258.53 92.3434C258.53 92.3434 253.155 84.5675 246.585 83.9972C240.015 83.427 237.323 88.4641 235.237 91.1511C233.151 93.8381 231.956 89.9588 226.875 89.9588" stroke="#263238" stroke-linecap="round" stroke-linejoin="round"/>
<path d="M234.533 100.128C233.794 100.834 233.307 101.763 233.148 102.772" stroke="#263238" stroke-linecap="round" stroke-linejoin="round"/>
<path d="M257.332 95.0219C257.332 95.0219 253.151 90.8488 248.373 91.1512C243.595 91.4536 245.387 97.1127 243.292 98.9271C241.197 100.741 238.817 98.3309 236.125 99.2209" stroke="#263238" stroke-linecap="round" stroke-linejoin="round"/>
<path d="M75.4178 278.732V242.704H31.5234V221.337L69.8001 132.07H99.0054V222.789H114.058V242.704H99.0054V278.732H75.4178ZM52.5661 222.78H75.4178V159.043L52.5661 222.78Z" fill="#263238" stroke="#263238" stroke-linecap="round" stroke-linejoin="round"/>
<path d="M165.581 280.91C156.995 280.91 149.891 279.098 144.27 275.475C138.633 271.841 134.211 266.609 131.572 260.45C128.721 254.045 127.299 246.681 127.305 238.358V173.351C127.305 164.78 128.667 157.267 131.39 150.81C133.901 144.602 138.273 139.321 143.907 135.69C149.533 132.073 156.747 130.261 165.547 130.255C174.347 130.25 181.575 132.061 187.23 135.69C192.864 139.321 197.236 144.602 199.747 150.81C202.505 157.238 203.884 164.752 203.884 173.351V238.358C203.884 246.687 202.464 254.051 199.625 260.45C196.983 266.607 192.562 271.838 186.927 275.475C181.283 279.098 174.168 280.91 165.581 280.91ZM165.581 259.362C169.332 259.362 172.114 258.21 173.926 255.906C175.802 253.468 177.05 250.608 177.561 247.577C178.139 244.41 178.429 241.197 178.427 237.978V173.697C178.429 170.331 178.157 166.97 177.613 163.649C177.18 160.602 175.973 157.717 174.108 155.268C172.296 152.964 169.453 151.812 165.581 151.812C161.709 151.812 158.867 152.964 157.055 155.268C155.178 157.729 153.962 160.629 153.524 163.692C152.977 167.013 152.702 170.374 152.701 173.74V238.021C152.705 241.237 153.033 244.444 153.679 247.594C154.24 250.624 155.513 253.479 157.393 255.923C159.228 258.215 161.957 259.362 165.581 259.362Z" fill="#263238" stroke="#263238" stroke-linecap="round" stroke-linejoin="round"/>
<path d="M263.723 278.732V242.704H219.828V221.337L258.105 132.07H287.31V222.789H302.363V242.704H287.31V278.732H263.723ZM240.871 222.78H263.723V159.043L240.871 222.78Z" fill="#263238" stroke="#263238" stroke-linecap="round" stroke-linejoin="round"/>
<path d="M86.3562 278.732V242.704H42.4531V221.337L80.7298 132.07H109.944V222.789H124.996V242.704H109.944V278.732H86.3562ZM63.4958 222.78H86.3562V159.043L63.4958 222.78Z" fill="white" stroke="#263238" stroke-linecap="round" stroke-linejoin="round"/>
<path d="M176.519 280.91C167.932 280.91 160.826 279.098 155.199 275.475C149.564 271.838 145.144 266.607 142.501 260.45C139.662 254.045 138.242 246.681 138.242 238.358V173.351C138.242 164.78 139.601 157.267 142.319 150.81C144.836 144.604 149.21 139.324 154.844 135.69C160.465 132.073 167.678 130.261 176.484 130.255C185.29 130.25 192.504 132.061 198.124 135.69C203.758 139.324 208.132 144.604 210.649 150.81C213.367 157.267 214.726 164.78 214.726 173.351V238.358C214.726 246.687 213.307 254.051 210.468 260.45C207.839 266.6 203.437 271.83 197.821 275.475C192.206 279.098 185.106 280.91 176.519 280.91ZM176.519 259.362C180.27 259.362 183.051 258.21 184.863 255.906C186.74 253.469 187.986 250.608 188.49 247.577C189.087 244.412 189.391 241.198 189.399 237.978V173.697C189.402 170.331 189.129 166.97 188.585 163.649C188.149 160.584 186.93 157.683 185.045 155.225C183.227 152.921 180.385 151.769 176.519 151.769C172.653 151.769 169.81 152.921 167.993 155.225C166.108 157.683 164.889 160.584 164.452 163.649C163.908 166.97 163.636 170.331 163.639 173.697V237.978C163.647 241.203 163.98 244.419 164.634 247.577C165.198 250.608 166.474 253.462 168.356 255.906C170.174 258.21 172.895 259.362 176.519 259.362Z" fill="white" stroke="#263238" stroke-linecap="round" stroke-linejoin="round"/>
<path d="M274.661 278.732V242.704H230.758V221.337L269.035 132.07H298.231V222.789H313.284V242.704H298.231V278.732H274.661ZM251.8 222.78H274.661V159.043L251.8 222.78Z" fill="white" stroke="#263238" stroke-linecap="round" stroke-linejoin="round"/>
<path d="M79.6822 124.976C77.984 125.058 76.2964 124.666 74.8089 123.844C73.6006 123.078 72.686 121.927 72.2121 120.579C71.6613 118.952 71.4005 117.241 71.4417 115.524V104.785C71.4022 103.09 71.666 101.402 72.2208 99.7996C72.6993 98.4783 73.6155 97.3597 74.8175 96.6287C76.3477 95.9004 78.0216 95.5225 79.7168 95.5225C81.4121 95.5225 83.0859 95.9004 84.6161 96.6287C85.8136 97.3649 86.7283 98.4817 87.2129 99.7996C87.7781 101.4 88.0479 103.089 88.0092 104.785V115.576C88.0443 117.272 87.7746 118.96 87.2129 120.561C86.7286 121.904 85.8163 123.051 84.6161 123.827C83.1145 124.671 81.4029 125.07 79.6822 124.976ZM79.6822 121.114C80.3771 121.171 81.0683 120.968 81.6211 120.544C82.0716 120.13 82.3753 119.581 82.4867 118.98C82.6371 118.27 82.7097 117.546 82.7031 116.82V103.584C82.7124 102.855 82.6398 102.128 82.4867 101.415C82.3732 100.832 82.0687 100.303 81.6211 99.9119C81.064 99.4977 80.3744 99.301 79.6822 99.3589C79.007 99.3099 78.3367 99.5063 77.7952 99.9119C77.3461 100.302 77.0413 100.831 76.9296 101.415C76.7765 102.128 76.704 102.855 76.7132 103.584V116.82C76.7096 117.545 76.7763 118.268 76.9123 118.98C77.0163 119.584 77.3213 120.135 77.7779 120.544C78.3216 120.96 78.999 121.163 79.6822 121.114Z" fill="#263238"/>
<path d="M99.6986 124.976C98.0031 125.059 96.3183 124.667 94.8339 123.845C93.621 123.083 92.705 121.931 92.2372 120.579C91.6782 118.959 91.4115 117.254 91.4495 115.542V104.785C91.4082 103.089 91.6751 101.4 92.2372 99.7996C92.707 98.4734 93.6252 97.3521 94.8339 96.6288C96.3626 95.9006 98.0351 95.5227 99.7289 95.5227C101.423 95.5227 103.095 95.9006 104.624 96.6288C105.821 97.3649 106.736 98.4818 107.221 99.7996C107.786 101.4 108.056 103.089 108.017 104.785V115.576C108.052 117.272 107.782 118.96 107.221 120.561C106.736 121.904 105.824 123.051 104.624 123.827C103.125 124.67 101.416 125.069 99.6986 124.976ZM99.6986 121.114C100.393 121.171 101.085 120.968 101.638 120.544C102.084 120.127 102.387 119.58 102.503 118.98C102.646 118.269 102.716 117.545 102.711 116.82V103.584C102.718 102.856 102.648 102.129 102.503 101.415C102.385 100.834 102.082 100.306 101.638 99.9119C101.08 99.4977 100.391 99.3011 99.6986 99.359C99.0259 99.3089 98.358 99.5055 97.8203 99.9119C97.3674 100.299 97.0617 100.83 96.9547 101.415C96.8058 102.128 96.7333 102.855 96.7383 103.584V116.82C96.7347 117.545 96.8013 118.268 96.9373 118.98C97.0414 119.584 97.3463 120.135 97.8029 120.544C98.3454 120.956 99.0185 121.158 99.6986 121.114Z" fill="#263238"/>
<path d="M111.891 124.588V95.8425H120.348C121.813 95.7795 123.269 96.1107 124.563 96.8016C125.643 97.444 126.48 98.4252 126.943 99.5923C127.487 100.999 127.746 102.5 127.705 104.007C127.775 105.572 127.447 107.13 126.753 108.535C126.155 109.636 125.213 110.513 124.07 111.032C122.781 111.577 121.392 111.842 119.993 111.809H117.153V124.588H111.891ZM117.153 108.12H119.144C119.905 108.159 120.664 108.02 121.36 107.714C121.624 107.581 121.858 107.396 122.049 107.17C122.239 106.945 122.382 106.683 122.468 106.401C122.694 105.612 122.796 104.793 122.771 103.973C122.79 103.12 122.712 102.268 122.537 101.433C122.48 101.138 122.362 100.858 122.191 100.611C122.019 100.364 121.798 100.156 121.542 99.9983C120.797 99.6362 119.971 99.4753 119.144 99.5318H117.153V108.12Z" fill="#263238"/>
<path d="M137.741 124.976C136.234 125.028 134.74 124.679 133.413 123.965C132.252 123.28 131.342 122.241 130.816 121.002C130.173 119.487 129.835 117.861 129.82 116.215L134.33 115.351C134.361 116.346 134.5 117.334 134.746 118.298C134.905 119.035 135.261 119.716 135.776 120.268C136.017 120.501 136.303 120.682 136.617 120.801C136.931 120.92 137.266 120.974 137.602 120.959C137.945 120.995 138.291 120.944 138.608 120.811C138.926 120.678 139.205 120.467 139.42 120.198C139.792 119.623 139.976 118.947 139.948 118.263C139.987 117.17 139.685 116.092 139.082 115.179C138.428 114.28 137.663 113.468 136.806 112.759L133.179 109.571C132.202 108.746 131.378 107.754 130.746 106.642C130.12 105.408 129.822 104.033 129.881 102.651C129.818 101.684 129.963 100.715 130.307 99.8092C130.65 98.9032 131.184 98.0809 131.872 97.3977C133.377 96.1043 135.325 95.4418 137.308 95.5488C138.465 95.5115 139.616 95.7237 140.684 96.1709C141.538 96.5535 142.28 97.1484 142.839 97.8989C143.379 98.6577 143.781 99.5059 144.025 100.404C144.294 101.372 144.462 102.365 144.527 103.368L140.043 104.146C140.008 103.336 139.91 102.53 139.749 101.735C139.623 101.109 139.323 100.531 138.883 100.067C138.652 99.8528 138.379 99.6882 138.081 99.5841C137.783 99.48 137.467 99.4387 137.152 99.4627C136.814 99.4435 136.475 99.5021 136.163 99.6339C135.851 99.7657 135.573 99.9673 135.351 100.223C134.933 100.767 134.716 101.438 134.737 102.124C134.703 102.962 134.91 103.793 135.334 104.517C135.817 105.24 136.4 105.892 137.065 106.452L140.649 109.615C141.835 110.605 142.863 111.77 143.696 113.071C144.568 114.534 145.003 116.216 144.951 117.918C144.985 119.19 144.686 120.449 144.085 121.572C143.494 122.625 142.618 123.49 141.558 124.069C140.387 124.7 139.071 125.013 137.741 124.976Z" fill="#263238"/>
<path d="M147.297 124.587V119.905H151.997V124.587H147.297ZM148.794 117.848L147.34 95.877H152.17L150.439 117.848H148.794Z" fill="#263238"/>
<path d="M276.758 296.53V302.708H279.986V299.088C279.986 298.325 280.29 297.593 280.831 297.053C281.371 296.514 282.104 296.211 282.869 296.211H293.447C294.211 296.211 294.944 296.514 295.485 297.053C296.025 297.593 296.329 298.325 296.329 299.088V302.708H299.558V296.53C299.555 295.767 299.25 295.035 298.708 294.495C298.166 293.956 297.432 293.653 296.667 293.653H279.64C278.876 293.653 278.143 293.956 277.602 294.496C277.062 295.036 276.758 295.767 276.758 296.53Z" fill="#263238" stroke="#263238" stroke-linecap="round" stroke-linejoin="round"/>
<path d="M249.691 301.023H310.75C311.829 301.023 312.864 301.451 313.627 302.213C314.39 302.974 314.818 304.007 314.818 305.084V354.072C314.818 354.76 314.545 355.419 314.058 355.905C313.571 356.391 312.91 356.664 312.221 356.664H248.245C247.557 356.664 246.896 356.391 246.409 355.905C245.922 355.419 245.648 354.76 245.648 354.072V305.084C245.648 304.011 246.073 302.982 246.831 302.222C247.588 301.461 248.616 301.03 249.691 301.023Z" fill="#263238" stroke="#263238" stroke-linecap="round" stroke-linejoin="round"/>
<path d="M258.153 301.023H319.212C320.291 301.023 321.326 301.451 322.088 302.213C322.851 302.974 323.28 304.007 323.28 305.084V354.072C323.28 354.76 323.006 355.419 322.519 355.905C322.032 356.391 321.372 356.664 320.683 356.664H256.698C256.01 356.664 255.349 356.391 254.862 355.905C254.375 355.419 254.102 354.76 254.102 354.072V305.084C254.102 304.01 254.528 302.98 255.287 302.219C256.046 301.458 257.077 301.028 258.153 301.023Z" fill="#8A8A8A" stroke="#263238" stroke-linecap="round" stroke-linejoin="round"/>
<path d="M340.649 191.694C340.649 191.694 323.25 243.879 321.744 253.322C320.238 262.766 321.207 274.499 322.108 280.434C323.008 286.37 332.278 337.613 332.278 337.613C332.278 337.613 329.984 336.836 329.82 338.477C329.656 340.119 330.227 347.117 330.227 347.117C330.227 347.117 327.829 350.478 321.502 354.133C315.174 357.787 312.093 358.893 313.98 360.094C315.867 361.295 323.951 361.719 327.249 361.226C330.547 360.734 339.419 359.705 340.865 359.498C342.311 359.291 346.673 360.189 348.067 357.675C349.46 355.161 348.448 347.549 348.794 344.853C349.14 342.158 347.184 337.872 347.175 337.25C347.167 336.628 345.444 278.715 345.444 278.715L346.535 264.329C346.535 264.329 346.214 278.032 347.79 279.553C349.365 281.074 365.838 338.261 365.838 338.261L364.236 340.775L366.227 346.305L364.66 349.856C364.66 349.856 357.164 356.846 354.1 358.574C351.036 360.302 347.946 360.777 349.634 362.185C351.321 363.593 367.854 362.79 367.854 362.79L385.166 359.291C385.166 359.291 387.763 356.336 387.313 353.865C386.863 351.394 384.569 342.572 384.569 342.572C384.569 342.572 385.123 330.995 384.491 330.598C383.859 330.2 380.657 325.941 380.414 324.29C380.172 322.64 378.371 290.301 376.467 284.867C374.563 279.432 372.2 270.922 372.2 270.922C372.952 270.153 373.451 269.173 373.628 268.114C373.625 266.733 373.513 265.355 373.29 263.992C373.29 263.992 391.355 217.078 392.178 214.399C393 211.721 396.731 197.258 396.731 191.478C396.731 185.698 396.315 181.36 396.315 181.36C396.315 181.36 382.249 187.763 367.976 188.385C353.702 189.007 341.09 188.177 341.09 188.177L340.649 191.694Z" fill="#263238" stroke="#263238" stroke-linecap="round" stroke-linejoin="round"/>
<path d="M383.922 193.551C383.922 193.551 383.922 207.591 390.951 210.278" stroke="white" stroke-linecap="round" stroke-linejoin="round"/>
<path d="M394.006 189.421C394.203 195.443 393.724 201.468 392.578 207.384" stroke="white" stroke-linecap="round" stroke-linejoin="round"/>
<path d="M380.525 232.457C378.595 236.552 377.123 239.732 377.062 240.008" stroke="white" stroke-linecap="round" stroke-linejoin="round"/>
<path d="M389.884 212.749C389.884 212.749 385.365 222.201 381.695 229.977" stroke="white" stroke-linecap="round" stroke-linejoin="round"/>
<path d="M348.323 251.43L355.958 218.745L347.891 211.721" stroke="white" stroke-linecap="round" stroke-linejoin="round"/>
<path d="M346.664 258.523L347.46 255.136" stroke="white" stroke-linecap="round" stroke-linejoin="round"/>
<path d="M306.948 116.907L286.234 125.892C286.234 125.892 298.595 100.232 299.097 98.7284C299.599 97.225 292.25 84.5589 292.415 84.0405C292.579 83.5221 298.933 75.8672 299.097 74.1997C299.262 72.5322 302.776 66.7002 300.101 66.3633C297.427 66.0263 283.231 79.2367 282.893 82.5545C282.556 85.8722 289.238 97.2423 289.913 98.2273C290.588 99.2122 255.497 136.744 254.831 142.749C254.164 148.753 257.003 152.59 262.015 153.255C267.027 153.92 306.446 140.416 312.462 138.748C318.478 137.081 320.477 139.716 320.477 139.716C320.477 139.716 339.356 162.56 340.698 165.394C342.039 168.228 341.364 178.734 339.832 181.896C338.3 185.058 336.655 190.536 337.495 191.4C338.478 192.678 339.877 193.574 341.451 193.932C343.952 194.597 361.36 196.74 371.236 195.236C381.113 193.733 392.789 188.566 395.473 186.596C398.156 184.626 398.476 182.276 398.476 179.252C398.476 176.228 396.468 173.585 395.135 170.612C393.802 167.64 384.947 140.096 381.286 131.258C377.624 122.419 378.784 115.758 364.917 107.93C351.05 100.102 334.786 101.701 334.786 101.701L306.948 116.907Z" fill="#EAC6A2" stroke="#263238" stroke-linecap="round" stroke-linejoin="round"/>
<path d="M285.407 138.48L285.242 141.081" stroke="#263238" stroke-linecap="round" stroke-linejoin="round"/>
<path d="M280.891 142.584L286.231 125.909L285.53 136.519" stroke="#263238" stroke-linecap="round" stroke-linejoin="round"/>
<path d="M280.391 111.066C280.391 111.066 281.256 117.408 289.41 117.736" stroke="#263238" stroke-linecap="round" stroke-linejoin="round"/>
<path d="M318.642 138.247C314.828 135.76 310.735 133.73 306.445 132.199L318.642 138.247Z" fill="white"/>
<path d="M318.642 138.247C314.828 135.76 310.735 133.73 306.445 132.199" stroke="#263238" stroke-linecap="round" stroke-linejoin="round"/>
<path d="M304.627 134.394L302.602 134.074" stroke="#263238" stroke-linecap="round" stroke-linejoin="round"/>
<path d="M316.467 137.124C316.467 137.124 312.208 135.88 306.945 134.86" stroke="#263238" stroke-linecap="round" stroke-linejoin="round"/>
<path d="M347.094 171.139C347.423 171.457 347.8 171.722 348.21 171.926" stroke="#263238" stroke-linecap="round" stroke-linejoin="round"/>
<path d="M340.695 165.428C340.695 165.428 343.638 168.159 345.846 170.077" stroke="#263238" stroke-linecap="round" stroke-linejoin="round"/>
<path d="M376.773 194.277L391.644 184.937" stroke="#263238" stroke-linecap="round" stroke-linejoin="round"/>
<path d="M385.24 157.86C383.569 164.642 380.315 176.185 376.445 181.758" stroke="#263238" stroke-linecap="round" stroke-linejoin="round"/>
<path d="M386.464 152.59C386.464 152.59 386.257 153.609 385.867 155.294" stroke="#263238" stroke-linecap="round" stroke-linejoin="round"/>
<path d="M386.46 161.419C386.46 161.419 383.291 175.243 380.781 179.097" stroke="#263238" stroke-linecap="round" stroke-linejoin="round"/>
<path d="M294.944 107.748C297.126 103.135 298.917 99.3158 299.099 98.7628C299.601 97.2595 292.252 84.5934 292.417 84.075C292.581 83.5566 298.935 75.9016 299.099 74.2341C299.264 72.5666 302.778 66.7347 300.103 66.3977C297.429 66.0607 283.233 79.2366 282.895 82.5543C282.558 85.8721 289.24 97.2422 289.915 98.2271C290.054 98.4431 288.591 100.283 286.21 103.117C287.137 105.381 289.404 108.249 294.944 107.748Z" fill="white" stroke="#263238" stroke-linecap="round" stroke-linejoin="round"/>
<path d="M292.021 75.124C292.021 75.124 287.841 83.2196 287.996 83.8331" stroke="#263238" stroke-linecap="round" stroke-linejoin="round"/>
<path d="M288.918 75.219C288.918 75.219 284.148 81.9927 284.451 83.064" stroke="#263238" stroke-linecap="round" stroke-linejoin="round"/>
<path d="M324.82 135.75L331.503 149.254L334.679 149.419L337.354 134.247L335.182 130.748L333.675 140.252L329.668 140.079L324.993 133.081L324.82 135.75Z" fill="#8A8A8A" stroke="#263238" stroke-linecap="round" stroke-linejoin="round"/>
<path d="M331.508 149.254L325.977 189.508L332.382 202.951L339.238 188.981L334.684 149.419L331.508 149.254Z" fill="#8A8A8A" stroke="#263238" stroke-linecap="round" stroke-linejoin="round"/>
<path d="M330.52 147.25L335.644 143.993L337.228 134.981L334.216 136.9L333.68 140.252L329.672 140.079L329.533 139.872L327.508 141.159L330.52 147.25Z" fill="#263238"/>
<path d="M334.686 149.419L334.695 149.375L334.625 149.419H334.686Z" fill="#263238"/>
<path d="M336.053 161.299L329.258 165.61L328.055 174.379L336.91 168.755L336.053 161.299Z" fill="#263238"/>
<path d="M335.542 156.84L334.685 149.419H334.624L331.188 151.605L329.984 160.374L335.542 156.84Z" fill="#263238"/>
<path d="M337.421 173.204L327.337 179.624L326.125 188.385L338.287 180.661L337.421 173.204Z" fill="#263238"/>
<path d="M336.484 194.588L339.236 188.981L338.795 185.119L327.352 192.393L330.277 198.536L336.484 194.588Z" fill="#263238"/>
<path d="M320.145 120.242C320.145 120.242 318.803 128.406 318.976 132.078C319.149 135.75 320.976 142.248 320.976 142.248L329.164 132.908L342.858 141.444C342.858 141.444 342.373 124.078 342.373 123.577C342.373 123.076 339.197 104.396 338.193 102.564C337.646 101.706 336.87 101.017 335.953 100.574C335.035 100.132 334.013 99.9532 332.999 100.059C331.502 100.396 320.145 120.242 320.145 120.242Z" fill="#EAC6A2" stroke="#263238" stroke-linecap="round" stroke-linejoin="round"/>
<path d="M297.073 74.6921C297.073 74.6921 296.64 86.9089 296.926 91.7905C297.211 96.672 296.493 100.56 297.791 104.578C299.09 108.595 300.527 116.388 301.816 118.98C302.548 120.493 303.694 121.768 305.122 122.658C306.55 123.548 308.201 124.016 309.884 124.009C313.917 124.009 318.375 120.7 320.539 118.548C322.703 116.397 326.443 113.364 328.451 109.494C330.459 105.623 328.745 95.8426 329.031 93.0778C329.316 90.3131 329.896 85.6043 329.896 85.6043C329.896 85.6043 332.77 78.5628 330.468 75.2364C328.165 71.9101 317.942 68.1949 310.169 68.9206C305.319 69.4748 300.751 71.4876 297.073 74.6921Z" fill="white" stroke="#263238" stroke-linecap="round" stroke-linejoin="round"/>
<path d="M303.834 88.49L304.986 92.8099C304.986 92.8099 301.523 102.875 302.389 103.446C303.255 104.016 310.309 103.307 310.309 103.307" stroke="#263238" stroke-linecap="round" stroke-linejoin="round"/>
<path d="M309.485 84.0319C309.485 84.0319 309.338 85.613 309.918 85.8981C310.498 86.1832 316.107 88.3432 316.973 88.0581C317.838 87.773 316.687 86.6152 315.96 86.3301C315.233 86.045 309.165 82.7359 309.485 84.0319Z" fill="#263238" stroke="#263238" stroke-linecap="round" stroke-linejoin="round"/>
<path d="M303.833 86.33C303.833 86.33 299.228 88.922 298.362 89.0602C297.497 89.1985 298.942 87.3322 298.942 87.3322C298.942 87.3322 302.404 83.4529 303.27 84.0318C304.136 84.6107 303.833 86.33 303.833 86.33Z" fill="#263238" stroke="#263238" stroke-linecap="round" stroke-linejoin="round"/>
<path d="M311.219 92.0757C311.966 92.8172 312.946 93.2795 313.994 93.3849C315.042 93.4904 316.095 93.2325 316.975 92.6546" stroke="#263238" stroke-linecap="round" stroke-linejoin="round"/>
<path d="M299.227 93.2246C299.977 93.629 300.844 93.7639 301.682 93.6066C302.521 93.4494 303.279 93.0095 303.832 92.3606" stroke="#263238" stroke-linecap="round" stroke-linejoin="round"/>
<path d="M329.033 93.0606C329.293 90.5809 329.786 86.4683 329.899 85.7167L327.034 84.1528C327.034 84.1528 327.899 94.7799 326.748 100.672C325.597 106.565 323.58 108.448 321.277 109.312C318.975 110.176 317.815 109.027 317.815 109.027C317.815 109.027 312.344 103.843 307.428 103.714C303.152 103.584 299.871 108.275 299.109 109.468C300.018 113.166 300.944 117.244 301.81 118.972C302.542 120.484 303.688 121.759 305.116 122.649C306.543 123.539 308.194 124.007 309.877 124C313.911 124 318.369 120.691 320.533 118.54C322.697 116.388 326.436 113.356 328.444 109.485C330.453 105.614 328.747 95.8167 329.033 93.0606Z" fill="#263238" stroke="#263238" stroke-linecap="round" stroke-linejoin="round"/>
<path d="M314.342 113.347C314.342 113.347 311.321 109.027 308.447 108.319C305.573 107.61 302.544 113.2 303.548 114.211C304.552 115.222 305.998 111.481 308.742 112.63C311.486 113.779 313.052 115.645 314.342 113.347Z" fill="white" stroke="#263238" stroke-linecap="round" stroke-linejoin="round"/>
<path d="M296.635 67.0717C296.635 67.0717 292.307 65.7843 289.581 67.2186C287.792 68.2978 286.383 69.9036 285.547 71.815L291.165 72.247L293.761 73.543C293.761 73.543 292.61 73.543 292.03 75.1241C291.637 76.2584 291.302 77.4119 291.026 78.58C292.652 77.7547 294.409 77.2195 296.22 76.9989C299.379 76.4073 302.503 75.64 305.577 74.7007L306.295 79.444C308.331 78.1516 310.506 77.0909 312.779 76.2818C314.511 75.755 316.091 74.8184 317.384 73.5516C317.384 73.5516 324.871 76.4201 324.724 77.7161C324.577 79.012 321.989 82.1742 322.854 83.1765C323.72 84.1787 326.022 86.3387 326.022 86.3387L334.678 91.2289C336.969 87.3118 338.576 83.0346 339.43 78.58C341.006 70.8041 333.813 62.4839 327.762 60.1857C321.712 57.8874 317.254 58.7514 313.514 58.8897C310.51 58.866 307.516 58.5301 304.581 57.8875L308.044 61.4817C306.49 62.0954 304.904 62.6232 303.292 63.0628C301.846 63.3479 299.405 64.065 298.825 63.7799C298.245 63.4948 296.228 62.1988 296.228 62.1988C296.228 62.1988 295.19 66.5014 296.635 67.0717Z" fill="#263238" stroke="#263238" stroke-linecap="round" stroke-linejoin="round"/>
<path d="M331.332 99.1086C332.628 98.3965 333.757 97.419 334.647 96.2401C335.799 94.5121 339.105 87.9026 335.219 86.0364C332.276 84.6194 330.328 87.1596 329.549 88.4728C329.376 89.9762 329.168 91.756 329.03 93.0779C328.744 95.8081 330.467 105.58 328.45 109.494C326.433 113.408 322.694 116.406 320.538 118.548C319.504 119.561 318.38 120.477 317.18 121.287L320.824 122.281C321.844 125.038 323.306 127.611 325.152 129.901C326.974 132.23 328.946 134.438 331.055 136.511C331.055 136.511 331.921 131.327 334.223 119.836C336.526 108.345 334.795 101.692 334.795 101.692L331.332 99.1086Z" fill="white" stroke="#263238" stroke-linecap="round" stroke-linejoin="round"/>
<path d="M320.82 122.255L325.858 123.689L323.408 127.283C322.414 125.678 321.548 123.997 320.82 122.255Z" fill="#263238" stroke="#263238" stroke-linecap="round" stroke-linejoin="round"/>
<path d="M351.211 118.401L355.357 222.659L364.714 223.324C364.714 223.324 372.73 189.629 375.101 178.138C377.473 166.647 378.278 159.303 378.114 150.127C377.949 140.951 375.768 121.952 375.768 121.952C375.768 121.952 370.929 113.779 366.748 110.945" fill="#EAC6A2"/>
<path d="M351.211 118.401L355.357 222.659L364.714 223.324C364.714 223.324 372.73 189.629 375.101 178.138C377.473 166.647 378.278 159.303 378.114 150.127C377.949 140.951 375.768 121.952 375.768 121.952C375.768 121.952 370.929 113.779 366.748 110.945" stroke="#263238" stroke-linecap="round" stroke-linejoin="round"/>
<path d="M370.211 137.893C371.077 135.171 371.596 133.409 371.596 133.409" stroke="#263238" stroke-linecap="round" stroke-linejoin="round"/>
<path d="M353.727 178.768C353.727 178.768 357.734 169.429 362.383 159.087C364.936 153.462 367.429 146.343 369.177 141.029" stroke="#263238" stroke-linecap="round" stroke-linejoin="round"/>
<path d="M364.879 164.651C364.662 165.242 364.407 165.819 364.117 166.379" stroke="#263238" stroke-linecap="round" stroke-linejoin="round"/>
<path d="M369.766 145.583C369.766 145.583 367.697 155.38 365.758 161.834" stroke="#263238" stroke-linecap="round" stroke-linejoin="round"/>
<path d="M355.398 213.449L366.591 213.95" stroke="#263238" stroke-linecap="round" stroke-linejoin="round"/>
<path d="M355.362 222.659C355.362 222.659 354.055 238.747 354.055 240.138C354.055 241.529 355.171 251.681 355.448 252.519C355.725 253.357 362.832 258.636 363.524 258.636C364.217 258.636 368.129 259.05 368.822 257.936C369.514 256.821 369.8 256.13 368.822 255.854C367.624 255.683 366.411 255.637 365.204 255.715L363.671 255.016C363.671 255.016 369.376 254.463 369.8 254.324C370.224 254.186 372.301 252.795 372.726 251.819C372.826 251.471 372.853 251.106 372.804 250.748C372.755 250.389 372.631 250.045 372.44 249.737C372.44 249.737 374.535 247.784 374.673 247.093C374.812 246.402 374.95 244.449 373.981 244.726C373.078 245.165 372.272 245.779 371.609 246.531H368.147C368.147 246.531 371.765 244.173 372.18 243.473C372.752 242.059 373.045 240.548 373.046 239.023C372.907 238.159 371.098 239.161 370.674 239.999C370.25 240.838 369.558 243.058 369.558 243.058L365.385 243.611L364.018 241.762C364.018 241.762 366.805 233.122 366.805 231.334C366.805 229.545 364.788 223.281 364.788 223.281L355.362 222.659Z" fill="white" stroke="#263238" stroke-linecap="round" stroke-linejoin="round"/>
<path d="M360.492 243.715C360.492 243.715 363.556 246.35 364.396 246.635C365.236 246.92 368.161 246.488 368.161 246.488" stroke="#263238" stroke-linecap="round" stroke-linejoin="round"/>
<path d="M358.688 246.773C358.688 246.773 363.422 250.946 364.677 250.946C365.933 250.946 372.468 249.693 372.468 249.693" stroke="#263238" stroke-linecap="round" stroke-linejoin="round"/>
<path d="M357.703 250.385C357.703 250.385 360.49 253.72 361.33 254.005C362.17 254.29 363.702 254.973 363.702 254.973" stroke="#263238" stroke-linecap="round" stroke-linejoin="round"/>
</g>
<defs>
<clipPath id="clip0_1183_13342">
<rect width="404" height="372" fill="white"/>
</clipPath>
</defs>
</svg>
