<svg width="111" height="110" viewBox="0 0 111 110" fill="none" xmlns="http://www.w3.org/2000/svg">
<path d="M76.0905 44.6284C74.3311 38.283 72.6882 31.3666 68.3444 25.6914C65.1352 21.3119 59.9111 18.5822 55.0794 20.7716C51.6098 19.7577 47.7968 20.7238 43.439 23.7139C37.4623 27.8381 35.9497 33.725 34.4718 39.5669C33.2479 39.451 32.0387 39.9044 31.1954 40.7961C30.3525 41.6883 29.9705 42.9179 30.1599 44.1284C30.3499 45.3388 31.0905 46.3939 32.1667 46.9866C31.7345 47.8606 31.6552 48.8657 31.9449 49.7958C31.4971 52.043 31.2659 54.3277 31.2544 56.6186C31.2993 61.3652 31.5613 65.9439 34.4949 69.426V69.4265C33.1432 71.7548 32.425 74.394 32.412 77.0837V88.7305C32.412 89.0394 32.5351 89.3357 32.7543 89.5541C32.9735 89.7725 33.271 89.8952 33.581 89.8952H75.6668C75.9768 89.8952 76.2743 89.7725 76.4935 89.5541C76.7126 89.3357 76.8358 89.0394 76.8358 88.7305V77.0837C76.8358 75.1146 76.4481 73.1644 75.6939 71.344C81.0836 67.5041 80.999 61.387 79.1896 55.9396C78.151 52.1725 77.1181 48.4024 76.0906 44.6286L76.0905 44.6284ZM32.4923 42.9948C32.713 42.3251 33.3393 41.8707 34.0476 41.8681C34.5716 41.9061 35.1357 42.1764 35.6034 41.7828C36.0846 41.4215 36.917 40.9935 36.8591 40.2802C36.8701 39.3874 37.5997 38.6689 38.4958 38.6689C39.3924 38.6689 40.1215 39.3875 40.1324 40.2802C40.074 40.9925 40.9085 41.4235 41.3897 41.7834C41.6924 42.0012 42.0817 42.0631 42.4377 41.9487C43.292 41.6851 44.2011 42.1541 44.4778 43.0021C44.7544 43.8496 44.2967 44.7617 43.4502 45.0497C43.0938 45.1651 42.8145 45.4433 42.6987 45.7979C42.5228 46.3709 42.1016 47.2064 42.5687 47.7492C43.0838 48.4782 42.9163 49.4838 42.1924 50.0079C41.4686 50.5321 40.4566 50.3797 39.9201 49.6663C39.5892 49.2129 38.4953 49.2883 38.4953 49.2883C37.5569 49.2946 37.033 50.2175 36.0042 50.3189C35.1123 50.4551 34.2767 49.8504 34.1307 48.9628C33.8979 48.1199 34.8937 47.5324 34.5894 46.7057C34.3932 46.1374 34.2424 45.2156 33.5425 45.0497H33.543C32.6845 44.7705 32.2143 43.8512 32.4924 42.9948L32.4923 42.9948ZM52.9353 38.2581C53.1738 39.3006 53.0887 41.1938 54.5177 41.2592H54.5182C54.8909 41.2572 55.2405 41.0783 55.4597 40.7783C55.6794 40.4783 55.7431 40.092 55.6314 39.7374C55.1967 38.3787 55.05 36.9448 55.2003 35.5268C57.1152 39.7425 60.1495 43.3577 63.9756 45.9819C65.2834 60.5491 44.7444 61.2026 45.2708 46.6963C46.0604 46.1275 46.6131 45.2908 46.8255 44.3435C49.1491 42.6225 51.2074 40.5724 52.9353 38.2586L52.9353 38.2581ZM54.6231 68.9311C55.8631 68.9296 57.0515 68.4388 57.9282 67.5652C58.805 66.6917 59.2977 65.5078 59.2993 64.2724C62.6222 64.0899 66.2594 64.5667 68.8866 66.5113C65.9248 71.0405 58.5963 71.1689 54.6228 74.8757C50.6538 71.1705 43.3217 71.0312 40.3604 66.5107C42.9861 64.5667 46.6263 64.0894 49.9472 64.2724C49.9487 65.5078 50.4414 66.6918 51.3182 67.5652C52.1951 68.4386 53.3834 68.9295 54.6234 68.9311H54.6231ZM56.9612 64.2724C56.9492 65.0965 56.5009 65.8531 55.7822 66.2617C55.0641 66.6704 54.1821 66.6704 53.4635 66.2617C52.7454 65.853 52.2971 65.0965 52.2851 64.2724V59.3792C53.8284 59.6901 55.418 59.6906 56.9613 59.3807L56.9612 64.2724ZM33.5923 56.597C33.5912 55.1323 33.7008 53.6702 33.9195 52.2216C34.6559 52.6007 35.4924 52.741 36.3129 52.6241C37.1333 52.5071 37.8964 52.1384 38.4965 51.5691C39.1766 52.2164 40.0653 52.6027 41.0043 52.6584C41.9437 52.7145 42.8721 52.4363 43.6247 51.8743C44.7113 54.8967 46.9977 57.341 49.9475 58.6346V61.943H47.6094C43.083 61.9409 38.7919 63.9541 35.9106 67.432C33.846 64.5801 33.6289 60.8376 33.5923 56.597ZM74.4969 87.5655H34.7493V77.0834C34.7472 73.6798 36.1088 70.4166 38.5319 68.0176C41.8929 73.1719 49.8268 73.056 53.7536 77.2904C53.9754 77.5363 54.2917 77.6772 54.6236 77.6772C54.9555 77.6772 55.2718 77.5363 55.4936 77.2904C59.4229 73.0549 67.3552 73.1807 70.7153 68.0182C73.138 70.4171 74.4995 73.6804 74.4975 77.0834L74.4969 87.5655ZM77.7687 64.5394C77.2562 66.4019 76.1487 68.0474 74.6144 69.2273C71.3827 63.8853 65.5599 61.4703 59.2992 61.9424V58.6387C61.4681 57.6867 63.2985 56.1045 64.55 54.0986C65.8015 52.0932 66.4163 49.7581 66.3135 47.3985C67.5926 47.8675 70.3958 49.953 71.1561 48.0651V48.0656C71.2511 47.7713 71.2245 47.4521 71.0831 47.177C70.9411 46.9025 70.6958 46.695 70.4004 46.6009C68.8692 46.1023 67.4053 45.4191 66.0405 44.5658C61.3503 41.6323 57.8916 37.0983 56.3102 31.8105C56.1761 31.3374 55.7586 30.9989 55.2665 30.9646C54.7743 30.9302 54.3135 31.2079 54.1151 31.6582C52.3908 35.5494 49.7703 38.9817 46.4668 41.6766C46.0884 40.9533 45.4955 40.3642 44.7696 39.9877C44.0436 39.6118 43.2185 39.4672 42.4074 39.5743C42.2143 38.536 41.6147 37.6173 40.7404 37.0203C39.8662 36.4233 38.7895 36.1977 37.7483 36.3927C39.1575 31.6399 40.9841 28.2285 44.7648 25.6319C48.6717 22.95 51.9539 22.1316 54.7967 23.1273C55.1155 23.2391 55.4678 23.2079 55.7622 23.0415C57.5971 22.1311 59.7495 22.1082 61.6028 22.9802C69.3713 27.0004 71.5903 37.3903 73.8334 45.2382C74.8631 49.0094 75.896 52.7801 76.9329 56.5502C77.6203 59.0874 78.3999 61.9639 77.7685 64.5392L77.7687 64.5394Z" fill="#584940"/>
<path d="M38.4965 47.9669C39.5748 47.9549 40.5653 47.3752 41.1008 46.4429C41.6362 45.5112 41.6362 44.3662 41.1008 43.434C40.5653 42.5023 39.5742 41.9226 38.4965 41.9106C37.4188 41.9226 36.4283 42.5023 35.8928 43.4346C35.3573 44.3663 35.3573 45.5113 35.8928 46.4431C36.4283 47.3753 37.4189 47.955 38.4965 47.967V47.9669ZM38.4965 44.2399C38.8785 44.2472 39.1844 44.5581 39.1844 44.9387C39.1844 45.3193 38.8785 45.6297 38.4965 45.6375C38.1145 45.6297 37.8092 45.3193 37.8092 44.9387C37.8092 44.5581 38.1145 44.2472 38.4965 44.2399Z" fill="#584940"/>
<path d="M109.412 55C109.412 84.8199 85.1471 109 55.2062 109C25.2654 109 1 84.8199 1 55C1 25.1801 25.2654 1 55.2062 1C85.1471 1 109.412 25.1801 109.412 55Z" stroke="#584940" stroke-width="2"/>
<path d="M56.1234 90.89C56.1234 90.8897 56.1231 90.8889 56.1231 90.8886C56.1216 90.8775 56.1186 90.8664 56.1164 90.8553C56.1105 90.828 56.105 90.8007 56.1005 90.773C55.9174 89.8642 55.4717 89.0384 54.8121 88.3841C54.4975 88.0639 54.136 87.7943 53.7335 87.579C53.725 87.5746 53.7165 87.5698 53.7084 87.5646C53.633 87.5174 53.5566 87.4782 53.4676 87.442C53.458 87.438 53.4484 87.4339 53.4388 87.4291C53.3649 87.3922 53.2793 87.3578 53.198 87.3253C53.1858 87.3205 53.174 87.315 53.1622 87.3091C53.1555 87.3058 53.1338 87.2984 53.1179 87.2928L53.1031 87.2877C53.0972 87.2855 53.0917 87.2836 53.0858 87.2814C53.0148 87.2533 52.9343 87.2271 52.8461 87.2038C52.8394 87.202 52.8332 87.2002 52.8269 87.1983C52.7231 87.1654 52.6175 87.1374 52.5126 87.1156C52.1755 87.0384 51.8258 87 51.4665 87C50.2143 87 49.033 87.4911 48.1404 88.3833C46.9635 89.5602 45.2508 94.5746 44 99.2568C44.6219 99.0755 45.4808 98.8203 46.2183 98.601C46.8645 98.4089 47.4387 98.238 47.7334 98.1527C51.4513 96.9584 54.0307 95.8288 54.8117 95.0529C55.7028 94.1626 56.1943 92.9794 56.1943 91.7224C56.1943 91.4484 56.1718 91.1796 56.1253 90.9008C56.1245 90.8971 56.1238 90.8938 56.1234 90.8905L56.1234 90.89Z" fill="#E9C69D"/>
<path d="M61.4043 76.0422C58.0642 79.9207 55.2628 83.614 53.4463 86.5319C53.4651 86.5389 53.4854 86.5478 53.5065 86.5574C53.6117 86.5943 53.7099 86.6401 53.7942 86.6818C53.7953 86.6822 53.7964 86.6829 53.7978 86.6833C53.8588 86.7088 53.9171 86.7357 53.974 86.7649C53.9913 86.7738 54.0076 86.7841 54.0246 86.7933C54.0619 86.8136 54.0995 86.8336 54.1357 86.8557C54.6073 87.1098 55.0316 87.4274 55.398 87.8C56.0667 88.4632 56.5487 89.2804 56.8064 90.1818C59.7436 88.3716 63.4922 85.5381 67.4567 82.1282C66.6739 80.9111 65.7495 79.7637 64.7067 78.7143C63.7189 77.7272 62.6091 76.8294 61.4038 76.0425L61.4043 76.0422Z" fill="#E9C69D"/>
<path d="M84.498 54.8987C77.358 59.7543 69.9802 66.4698 61.9561 75.4166C63.1699 76.2187 64.291 77.1293 65.2917 78.1297C66.3468 79.191 67.2828 80.3487 68.0827 81.5758C68.4749 81.229 68.8611 80.8897 69.2423 80.5555C70.8693 79.1275 72.4063 77.7789 74.0326 76.1526L74.7811 75.3542L74.7815 75.3538L74.7818 75.3535C74.8269 75.3058 74.8719 75.2567 74.9177 75.2069C74.979 75.14 75.0426 75.0717 75.1098 75.0012L75.1101 75.0008L75.6947 74.373L75.7217 74.3442C75.8025 74.2574 75.8834 74.171 75.9587 74.0842C75.9602 74.0824 75.9624 74.0813 75.9643 74.0791C75.9657 74.0772 75.9669 74.0754 75.9687 74.0735L78.1327 71.7611C78.1331 71.7607 78.1334 71.7604 78.1338 71.76C78.1342 71.7596 78.1342 71.7593 78.1346 71.7589C78.2391 71.6485 78.3377 71.544 78.4237 71.4513C78.5101 71.3582 78.5843 71.2781 78.6523 71.2042C78.6527 71.2039 78.6527 71.2039 78.6527 71.2039C78.653 71.2035 78.653 71.2031 78.6534 71.2028L78.8883 70.9491C83.1158 66.2533 86.5711 62.0176 88.6188 59.0215C92.0327 53.9923 92.5837 51.6067 92.5139 51.006C91.9179 50.9336 89.5438 51.4783 84.4984 54.8982L84.498 54.8987Z" fill="#E9C69D"/>
</svg>
