<svg width="22" height="24" viewBox="0 0 22 24" fill="none" xmlns="http://www.w3.org/2000/svg">
<path d="M8.00878 17.1362C7.98364 17.0858 7.95833 17.0606 7.90806 17.0355C7.85761 17.0606 7.80733 17.0606 7.73157 17.086C7.30319 17.1867 6.82437 17.3127 6.29507 17.3127C5.66507 17.3127 5.11067 17.1362 4.63182 16.7834C3.6239 16.0527 3.44741 14.8683 3.39697 14.0869L0.0959725 20.1601C-0.206375 20.7146 0.247146 21.395 0.877132 21.3446L3.59875 21.1178L4.85875 23.5622C5.1611 24.1418 5.96761 24.1418 6.29525 23.5873L9.19318 18.2953C8.66389 17.9174 8.28597 17.4637 8.00877 17.136L8.00878 17.1362Z" fill="#876351"/>
<path d="M21.3647 20.1604L18.0382 14.0872C17.9878 14.8683 17.8366 16.0276 16.8034 16.7837C16.3499 17.086 15.7703 17.2876 15.1403 17.2876C14.611 17.2876 14.1324 17.1616 13.7038 17.0609C13.6534 17.0357 13.6031 17.0357 13.5273 17.0104C13.5022 17.0609 13.4517 17.086 13.4266 17.1111C13.1494 17.4388 12.7714 17.8923 12.2422 18.2451L15.1401 23.5371C15.4678 24.0915 16.2741 24.0915 16.5766 23.512L17.8618 21.0676L20.5834 21.2943C21.2387 21.3951 21.6671 20.7148 21.3647 20.1604Z" fill="#876351"/>
<path d="M12.8966 15.0446C12.9974 15.0194 13.1234 14.9941 13.2243 14.9941C13.8038 14.9941 14.5599 15.3218 15.1395 15.3218C15.3411 15.3218 15.5174 15.2713 15.6687 15.1706C16.3239 14.6917 15.9208 13.1545 16.3995 12.4994C16.8783 11.8443 18.466 11.7687 18.7179 10.9873C18.9699 10.2313 17.7351 9.22336 17.7351 8.39171C17.7351 7.56006 18.9699 6.55214 18.7179 5.79609C18.4658 5.01493 16.853 4.93933 16.3995 4.28399C15.9206 3.62883 16.3239 2.09163 15.6687 1.61282C15.5176 1.5121 15.3411 1.46165 15.1395 1.46165C14.5599 1.46165 13.8038 1.7893 13.2243 1.7893C13.0983 1.7893 12.9975 1.76417 12.8966 1.73885C12.1406 1.48678 11.561 0 10.7294 0C9.89782 0 9.31826 1.48676 8.56221 1.73885C8.46149 1.76399 8.33545 1.7893 8.23455 1.7893C7.655 1.7893 6.89895 1.46165 6.31939 1.46165C6.11776 1.46165 5.94146 1.5121 5.79009 1.61282C5.13494 2.09167 5.53802 3.62888 5.05938 4.28399C4.58053 4.93915 2.99288 5.01471 2.74097 5.79609C2.48889 6.55214 3.72377 7.56006 3.72377 8.39171C3.72377 9.22336 2.48892 10.2313 2.74097 10.9873C2.99304 11.7685 4.60582 11.8441 5.05938 12.4994C5.53823 13.1546 5.13497 14.6918 5.79009 15.1706C5.94127 15.2713 6.11775 15.3218 6.31939 15.3218C6.89895 15.3218 7.655 14.9941 8.23455 14.9941C8.36059 14.9941 8.46131 15.0192 8.56221 15.0446C9.31826 15.2966 9.89782 16.7834 10.7294 16.7834C11.561 16.7832 12.1406 15.2713 12.8966 15.0446ZM10.4522 11.1132C10.2506 11.3148 9.99871 11.3904 9.77177 11.3904C9.54501 11.3904 9.26781 11.2897 9.09132 11.1132L7.27691 9.29879C6.89898 8.92086 6.89898 8.29087 7.27691 7.91274C7.65484 7.53481 8.28483 7.53481 8.66297 7.91274L9.79693 9.0467L12.7455 6.07317C13.1234 5.69524 13.7534 5.69524 14.1315 6.07317C14.5095 6.4511 14.5095 7.08109 14.1315 7.45922L10.4522 11.1132Z" fill="#876351"/>
</svg>
