<svg width="28" height="23" viewBox="0 0 28 23" fill="none" xmlns="http://www.w3.org/2000/svg">
<path d="M27.0581 6.35749L27.0577 6.35705C26.7763 6.07111 26.3957 5.91175 26 5.91175H20.6667C20.1267 5.91175 19.6626 5.53979 19.5346 5.01927L27.0581 6.35749ZM27.0581 6.35749C27.3402 6.64335 27.5 7.03304 27.5 7.44119V20.9706C27.5 21.379 27.3402 21.7686 27.0582 22.0542L27.0576 22.0548C26.7763 22.3408 26.3958 22.5 26 22.5H2C1.60422 22.5 1.22369 22.3408 0.942401 22.0548L0.941757 22.0542C0.659843 21.7686 0.5 21.379 0.5 20.9706V7.44119C0.5 7.03301 0.659813 6.64332 0.941842 6.35751L0.942278 6.35707C1.22375 6.07111 1.60438 5.91175 2 5.91175H7.33326C7.87348 5.91175 8.33765 5.53957 8.46547 5.01883L9.29416 1.65645L9.29416 1.65644C9.46275 0.972348 10.0659 0.5 10.7486 0.5H17.2515C17.9349 0.5 18.5374 0.972255 18.7059 1.65643L19.5345 5.01883L27.0581 6.35749ZM19.1669 14.2061C19.1669 11.3235 16.8583 8.97062 14.0001 8.97062C11.1419 8.97062 8.83337 11.3235 8.83337 14.2061C8.83337 17.0884 11.1419 19.4412 14.0001 19.4412C16.8583 19.4412 19.1669 17.0884 19.1669 14.2061Z" stroke="black"/>
</svg>
