<svg width="32" height="32" viewBox="0 0 32 32" fill="none" xmlns="http://www.w3.org/2000/svg">
<circle cx="16" cy="16" r="15.5" stroke="#876351"/>
<path d="M19.2851 25L16.2663 21.821L17.2418 20.7937L19.2647 22.924L23.0245 18.9595L24 20.0134L19.2851 25ZM11.7123 20.1154L10.7368 19.0882L12.1876 17.5604L10.7368 16.0326L11.7123 15.0053L13.1631 16.5331L14.6138 15.0053L15.5893 16.0326L14.1385 17.5604L15.5893 19.0882L14.6138 20.1154L13.1631 18.5876L11.7123 20.1154ZM9.39214 24.4771C9.01618 24.4771 8.69016 24.3317 8.41409 24.041C8.13803 23.7503 8 23.4069 8 23.011V9.7623C8 9.36497 8.13803 9.02044 8.41409 8.72871C8.69016 8.43697 9.01618 8.2911 9.39214 8.2911H10.6764V7H12.0876V8.2911H18.8689V7H20.2802V8.2911H21.5644C21.9417 8.2911 22.2689 8.43697 22.5459 8.72871C22.8229 9.02044 22.9614 9.36497 22.9614 9.7623V17.2184L21.5644 18.6947V13.8045H9.39214V23.011H15.6546L17.0468 24.4771H9.39214ZM9.39214 12.5134H21.5644V9.7623H9.39214V12.5134Z" fill="#876351"/>
</svg>
