<svg width="32" height="32" viewBox="0 0 32 32" fill="none" xmlns="http://www.w3.org/2000/svg">
<circle cx="16" cy="16" r="15.5" stroke="#876351"/>
<path d="M15.9973 25C14.8489 25 13.7663 24.7742 12.7496 24.3225C11.7328 23.8708 10.8468 23.2537 10.0915 22.4712C9.33624 21.6887 8.73822 20.7695 8.29749 19.7136C7.85678 18.6576 7.63642 17.5275 7.63642 16.3233C7.63642 15.119 7.85678 13.9907 8.29749 12.9385C8.73822 11.8863 9.33624 10.9649 10.0915 10.1745C10.8468 9.38405 11.7328 8.76204 12.7496 8.30846C13.7663 7.85488 14.8489 7.6281 15.9973 7.6281C17.1456 7.6281 18.2282 7.85488 19.2449 8.30846C20.2617 8.76204 21.1506 9.38405 21.9117 10.1745C22.6728 10.9649 23.2717 11.8863 23.7085 12.9385C24.1452 13.9907 24.3636 15.119 24.3636 16.3233C24.3636 17.5275 24.1452 18.6576 23.7085 19.7136C23.2717 20.7695 22.6728 21.6892 21.9116 22.4726C21.1505 23.256 20.2616 23.8731 19.2449 24.3239C18.2282 24.7746 17.1456 25 15.9973 25ZM18.7362 20.2289L19.7532 19.1728L16.7861 16.0914V11.5825H15.3459V16.7079L18.7362 20.2289ZM9.86645 6L10.8779 7.05041L7.00595 10.9288L6 9.87841L9.86645 6ZM22.1281 6L26 9.87841L24.9886 10.9288L21.1167 7.05041L22.1281 6ZM15.9973 23.3791C17.8916 23.3791 19.4986 22.6939 20.8181 21.3236C22.1376 19.9532 22.7974 18.2843 22.7974 16.3169C22.7974 14.3495 22.1376 12.6806 20.8181 11.3102C19.4986 9.93986 17.8916 9.25467 15.9973 9.25467C14.1029 9.25467 12.4959 9.93986 11.1764 11.3102C9.85689 12.6806 9.19713 14.3495 9.19713 16.3169C9.19713 18.2843 9.85689 19.9532 11.1764 21.3236C12.4959 22.6939 14.1029 23.3791 15.9973 23.3791Z" fill="#876351"/>
</svg>
