<svg width="112" height="110" viewBox="0 0 112 110" fill="none" xmlns="http://www.w3.org/2000/svg">
<path d="M110.206 55C110.206 84.8198 85.941 109 56.0002 109C26.0594 109 1.79395 84.8198 1.79395 55C1.79395 25.1801 26.0594 1 56.0002 1C85.941 1 110.206 25.1801 110.206 55Z" stroke="#584940" stroke-width="2"/>
<path d="M81.9081 58.8039L81.9081 58.8039C82.6629 60.8901 83.8232 63.4516 86.6862 66.6097L86.8714 66.4418L86.6862 66.6097C87.4549 67.4575 87.877 68.5439 87.877 69.6686V76.1796C87.877 78.3581 86.3149 80.1963 84.2115 80.6803L84.0458 80.7184L84.0204 80.8865C83.4818 84.4449 80.3197 87.1948 76.5007 87.1948C72.728 87.1948 69.5963 84.5102 69.0023 81.0141L68.9669 80.8059H68.7558H48.8984H48.6873L48.6519 81.0141C48.058 84.5102 44.9263 87.1948 41.1536 87.1948C37.3809 87.1948 34.2492 84.5102 33.6552 81.0141L33.6199 80.8059H33.4088H33.0928C30.4163 80.8059 28.25 78.6888 28.25 76.1019V53.954C28.25 51.3667 30.4163 49.25 33.0928 49.25H62.3502C65.0266 49.25 67.1925 51.3671 67.1925 53.954V55.4611V55.7111H67.4425H77.4158C79.4365 55.7111 81.2403 56.9575 81.9081 58.8039ZM30.5682 59.9759H30.3182V60.2259V65.4703V65.7203H30.5682H49.6885C50.2659 65.7203 50.7224 66.1742 50.7224 66.7192V68.6821V69.2741L51.1467 68.8613L57.1442 63.0273L57.3284 62.8481L57.1442 62.6689L51.1467 56.8349L50.7224 56.4221V57.0141V58.977C50.7224 59.5221 50.2658 59.9759 49.6885 59.9759H30.5682ZM46.6882 79.8064V79.8063C46.6882 76.8277 44.199 74.4163 41.1541 74.4163C38.1091 74.4163 35.6201 76.8278 35.6201 79.8063C35.6201 82.785 38.1092 85.1964 41.1541 85.1964C44.1992 85.1964 46.6877 82.7848 46.6882 79.8064ZM64.8757 78.8075H65.1257V78.5575L65.1258 53.9533C65.1258 52.4542 63.8747 51.247 62.3512 51.247H33.0938C31.5697 51.247 30.3187 52.4547 30.3187 53.9533V57.7276V57.9776L30.5687 57.9776L48.4048 57.9781L48.6548 57.9781V57.7281V53.9989C48.6548 53.5987 48.9027 53.2332 49.2905 53.077C49.6796 52.9203 50.1264 53.0077 50.4218 53.295L59.5184 62.1436C59.5184 62.1437 59.5184 62.1437 59.5184 62.1437C59.919 62.5335 59.9187 63.1621 59.5184 63.5515L50.4218 72.4002C50.2244 72.5922 49.9594 72.6951 49.6878 72.6951C49.5532 72.6951 49.4183 72.6701 49.2905 72.6184L49.2902 72.6183C48.9021 72.4617 48.6544 72.0964 48.6544 71.6963V67.9671V67.7171H48.4044H30.5683H30.3183V67.9671V76.1012C30.3183 77.6004 31.5694 78.8075 33.0934 78.8075H33.4093H33.6204L33.6558 78.5994C34.2493 75.1033 37.3814 72.4187 41.1541 72.4187C44.9268 72.4187 48.0585 75.1032 48.6525 78.5994L48.6878 78.8075H48.899H64.8757ZM72.8242 57.7079H72.5742L72.5742 57.958L72.5748 63.7559C72.5748 65.6939 74.1936 67.2587 76.1688 67.2587H84.0086H84.5395L84.2013 66.8494C81.7483 63.8813 80.6479 61.3705 79.9574 59.462C79.5765 58.4095 78.554 57.7079 77.4168 57.7079H72.8242ZM83.9557 78.3573L84.0205 78.6723L84.3098 78.5319C85.1934 78.1031 85.8101 77.2138 85.8101 76.179L85.8101 69.667C85.8101 69.5395 85.798 69.4163 85.7808 69.2985L85.7278 68.9363L85.4097 69.1175C85.2556 69.2052 85.078 69.256 84.8869 69.256H76.1682C73.0401 69.256 70.5065 66.7817 70.5065 63.7554V57.9576V57.7076H70.2565H67.4435H67.1935V57.9576V78.5572V78.8072H67.4435H68.7567H68.9679L69.0032 78.599C69.5967 75.1029 72.7288 72.4183 76.5016 72.4183C80.1871 72.4183 83.2615 74.9797 83.9557 78.3573ZM70.968 79.806C70.968 82.7846 73.4571 85.196 76.502 85.196C79.5471 85.196 82.0356 82.7845 82.0361 79.806C82.0361 76.8273 79.547 74.416 76.502 74.416C73.457 74.416 70.968 76.8275 70.968 79.806Z" fill="#584940" stroke="#FDFDFD" stroke-width="0.5"/>
<path d="M41.4608 75.822C39.4811 75.822 37.8711 77.627 37.8711 79.8453C37.8711 82.0636 39.4816 83.8686 41.4608 83.8686C43.44 83.8686 45.0504 82.0636 45.0504 79.8453C45.0504 77.6266 43.44 75.822 41.4608 75.822ZM41.4608 81.2628C40.7632 81.2628 40.1961 80.6267 40.1961 79.8454C40.1961 79.0637 40.7637 78.4281 41.4608 78.4281C42.1583 78.4281 42.7254 79.0642 42.7254 79.8454C42.7254 80.6272 42.1578 81.2628 41.4608 81.2628Z" fill="#584940"/>
<path d="M76.9095 75.822C74.6829 75.822 72.8711 77.627 72.8711 79.8453C72.8711 82.0636 74.6829 83.8686 76.9095 83.8686C79.1361 83.8686 80.9478 82.0636 80.9478 79.8453C80.9478 77.6266 79.1361 75.822 76.9095 75.822ZM76.9095 81.2628C76.1248 81.2628 75.4868 80.6267 75.4868 79.8454C75.4868 79.0637 76.1253 78.4281 76.9095 78.4281C77.6942 78.4281 78.3322 79.0642 78.3322 79.8454C78.3322 80.6272 77.6937 81.2628 76.9095 81.2628Z" fill="#584940"/>
<path fill-rule="evenodd" clip-rule="evenodd" d="M45.0566 49.2343V29.2507H35.7877L35.7874 49.2343H45.0566ZM45.0566 27.8086V24.1823L33 24.1826V27.8089L45.0566 27.8086ZM46.5023 24.1823V27.8086L50.1225 27.8089V24.1826L46.5023 24.1823ZM46.5023 29.2509V49.2345H50.1225V29.2509H46.5023ZM51.5694 24.1818V27.8081H63.626V24.1818H51.5694ZM51.5694 29.2504V49.234H60.8383V29.2504H51.5694ZM55.784 16.0944C55.1105 15.9057 54.3891 16.0029 53.7899 16.3633C53.7781 16.3729 53.7661 16.3773 53.7529 16.3866C52.9412 16.9291 52.2742 17.6613 51.8097 18.5199L49.5868 22.2666L53.9398 22.2157H53.9396C54.9299 22.2427 55.9116 22.0246 56.797 21.5805V21.5756C57.4095 21.2389 57.8556 20.6643 58.0301 19.9877C58.2489 19.1735 58.1336 18.3058 57.71 17.5768C57.7027 17.5649 57.6963 17.5526 57.6904 17.5399C57.2676 16.8271 56.5831 16.3081 55.7827 16.0929L55.784 16.0944ZM42.8351 16.3633C42.2358 16.0026 41.5144 15.9055 40.841 16.0944C40.0408 16.3095 39.3564 16.8288 38.9338 17.5414C38.9279 17.5553 38.9213 17.5646 38.9142 17.5783C38.4908 18.3073 38.3753 19.175 38.5934 19.9891C38.7683 20.6657 39.2147 21.2403 39.8269 21.577V21.5819C40.7125 22.0261 41.694 22.2443 42.6841 22.2172L47.0374 22.2681L44.8145 18.52C44.35 17.6613 43.6832 16.9291 42.8718 16.3866C42.859 16.3773 42.8481 16.3729 42.8351 16.3633Z" fill="#E9C69D"/>
</svg>
