<svg width="78" height="78" viewBox="0 0 78 78" fill="none" xmlns="http://www.w3.org/2000/svg">
<path d="M76.5685 2H38.0618C33.7833 2.03397 23.2093 3.87528 15.1412 10.9688C11.2022 13.6526 2 22.8931 2 38.7923C2 45.4169 4.68936 59.7058 15.0393 67.533C17.8237 70.2169 26.2857 75.8291 37.8581 76.8075H76.5685V39.6076" stroke="black" stroke-width="2.33767"/>
<path d="M76.5686 7.49707H38.2421C34.5944 7.52605 25.5793 9.09675 18.7008 15.1477C15.3426 17.4371 7.49707 25.3196 7.49707 38.8822C7.49707 44.5332 9.78992 56.7221 18.6139 63.3991C20.9878 65.6885 28.2022 70.4759 38.0684 71.3105H71.0715V39.5777" stroke="black" stroke-width="2.33767"/>
<path d="M76.5688 12.835L38.4173 12.835C35.3821 12.8591 27.8808 14.167 22.1573 19.2057C19.363 21.1121 12.835 27.676 12.835 38.9696C12.835 43.6753 14.7428 53.8251 22.0851 59.3851C24.0604 61.2915 30.0633 65.278 38.2728 65.973H65.734V39.5488" stroke="black" stroke-width="2.33767"/>
<path d="M76.5682 18.4111L38.5996 18.4111C36.2044 18.4302 30.2847 19.4636 25.7679 23.4447C23.5628 24.951 18.4111 30.1371 18.4111 39.0603C18.4111 42.7782 19.9167 50.7977 25.7109 55.1906C27.2697 56.6969 32.007 59.8467 38.4855 60.3958H60.1568V39.5179" stroke="black" stroke-width="2.33767"/>
<path d="M76.5675 24.1475H38.787C37.05 24.1613 32.7571 24.9124 29.4816 27.8056C27.8824 28.9003 24.1465 32.6694 24.1465 39.1543C24.1465 41.8564 25.2383 47.6845 29.4402 50.8771C30.5707 51.9718 34.0061 54.2609 38.7043 54.66H54.42V39.4869" stroke="black" stroke-width="2.33767"/>
<path d="M76.5674 30.4414H38.9905C37.9666 30.4495 35.4361 30.8908 33.5052 32.5905C32.5626 33.2336 30.3604 35.4477 30.3604 39.2574C30.3604 40.8448 31.004 44.2687 33.4809 46.1442C34.1472 46.7873 36.1723 48.1321 38.9418 48.3665H48.2058V39.4528" stroke="black" stroke-width="2.33767"/>
</svg>
