<svg width="18" height="16" viewBox="0 0 18 16" fill="none" xmlns="http://www.w3.org/2000/svg">
<path d="M9 16L8.0775 15.1924C6.49098 13.779 5.17935 12.5599 4.14261 11.5348C3.10587 10.5098 2.28 9.59345 1.665 8.78581C1.05 7.97817 0.61875 7.24693 0.37125 6.59209C0.12375 5.93724 0 5.27513 0 4.60573C0 3.29379 0.45375 2.19818 1.36125 1.31892C2.26875 0.43964 3.39 0 4.725 0C5.58 0 6.37125 0.196453 7.09875 0.589359C7.82625 0.982265 8.46 1.5498 9 2.29195C9.63 1.50614 10.2975 0.927694 11.0025 0.556617C11.7075 0.185539 12.465 0 13.275 0C14.61 0 15.7312 0.43964 16.6388 1.31892C17.5462 2.19818 18 3.29379 18 4.60573C18 5.27513 17.8762 5.93724 17.6287 6.59209C17.3813 7.24693 16.95 7.97817 16.335 8.78581C15.72 9.59345 14.8941 10.5098 13.8574 11.5348C12.8206 12.5599 11.509 13.779 9.9225 15.1924L9 16ZM9 14.2756C10.5185 12.9223 11.7682 11.7618 12.7489 10.794C13.7296 9.8263 14.5087 8.97863 15.0863 8.25102C15.6638 7.52342 16.0688 6.87487 16.3013 6.30538C16.5338 5.73587 16.65 5.17037 16.65 4.60889C16.65 3.64635 16.335 2.85584 15.705 2.23738C15.075 1.61892 14.2667 1.30969 13.2801 1.30969C12.5072 1.30969 11.7919 1.53888 11.1341 1.99727C10.4764 2.45566 9.945 3.09959 9.54 3.92906H8.4375C8.0475 3.11414 7.52363 2.47385 6.86588 2.00819C6.20811 1.54252 5.4928 1.30969 4.71994 1.30969C3.73331 1.30969 2.925 1.61892 2.295 2.23738C1.665 2.85584 1.35 3.64759 1.35 4.61263C1.35 5.17556 1.46625 5.74443 1.69875 6.31924C1.93125 6.89404 2.33625 7.54889 2.91375 8.28377C3.49125 9.01865 4.275 9.8663 5.265 10.8267C6.255 11.7872 7.5 12.9368 9 14.2756Z" fill="black"/>
</svg>
