<svg width="14" height="20" viewBox="0 0 14 20" fill="none" xmlns="http://www.w3.org/2000/svg">
<path fill-rule="evenodd" clip-rule="evenodd" d="M3.61908 15.5354C3.29142 15.6712 2.99736 15.8267 2.74456 15.9993C2.21391 16.361 1.86719 16.7842 1.86719 17.2669C1.86719 17.7493 2.21391 18.1727 2.74456 18.5342C3.70392 19.1886 5.25522 19.6002 7.00059 19.6002C8.74597 19.6002 10.2972 19.1886 11.2566 18.5342C11.7873 18.1727 12.134 17.7494 12.134 17.2669C12.134 16.7842 11.7873 16.361 11.2566 15.9993C11.0038 15.8267 10.7097 15.6712 10.3821 15.5354C8.95457 16.8043 7.73004 17.5285 7.71288 17.5389C7.27367 17.7982 6.72771 17.7982 6.28851 17.5389C6.27132 17.5285 5.04677 16.8043 3.61928 15.5354H3.61908Z" fill="#876351"/>
<path fill-rule="evenodd" clip-rule="evenodd" d="M6.99994 0C10.8636 0 14 3.13643 14 7.00006C14 9.30164 12.9136 11.3373 11.5943 12.9453C9.65852 15.3058 7.2375 16.7352 7.2375 16.7352C7.09094 16.8214 6.90906 16.8214 6.7625 16.7352C6.7625 16.7352 4.3414 15.3058 2.40566 12.9453C1.08645 11.3372 0 9.30152 0 7.00006C0 3.13643 3.13643 0 7.00006 0H6.99994ZM6.99994 4.66684C5.71197 4.66684 4.66664 5.71217 4.66664 7.00014C4.66664 8.28811 5.71197 9.33344 6.99994 9.33344C8.28791 9.33344 9.33324 8.28811 9.33324 7.00014C9.33324 5.71217 8.28791 4.66684 6.99994 4.66684Z" fill="#876351"/>
</svg>
