<svg width="212" height="225" viewBox="0 0 212 225" fill="none" xmlns="http://www.w3.org/2000/svg">
<g clip-path="url(#clip0_2014_5082)">
<path d="M44.481 181.71C44.3174 181.7 44.1643 181.626 44.0541 181.505C43.944 181.383 43.8855 181.224 43.891 181.06C44.631 151.67 46.141 103.46 46.221 103.19C46.2739 103.029 46.3864 102.895 46.5353 102.815C46.6841 102.735 46.8579 102.716 47.021 102.76C47.1829 102.811 47.3185 102.923 47.3989 103.072C47.4792 103.222 47.4979 103.397 47.451 103.56C47.451 103.62 45.901 152 45.161 181.09C45.1597 181.174 45.1418 181.256 45.1083 181.333C45.0748 181.409 45.0264 181.478 44.9659 181.536C44.9054 181.594 44.834 181.639 44.7559 181.669C44.6778 181.699 44.5945 181.713 44.511 181.71H44.481Z" fill="#263238"/>
<path d="M40.5314 83.5701C40.7814 85.8301 43.5314 93.6801 45.7514 93.4401C47.9714 93.2001 48.9814 84.9401 48.7514 82.6801C48.6334 81.5927 48.0883 80.5967 47.2359 79.9113C46.3836 79.2258 45.2938 78.907 44.2064 79.0251C43.119 79.1431 42.1231 79.6882 41.4376 80.5406C40.7522 81.393 40.4334 82.4827 40.5514 83.5701H40.5314Z" fill="#B8864B"/>
<path d="M51.5193 108.33C51.2693 106.06 48.5193 98.2099 46.2993 98.4599C44.0793 98.7099 43.0793 106.95 43.2993 109.22C43.4173 110.307 43.9625 111.303 44.8148 111.989C45.6672 112.674 46.7569 112.993 47.8443 112.875C48.9317 112.757 49.9276 112.212 50.6131 111.359C51.2985 110.507 51.6173 109.417 51.4993 108.33H51.5193Z" fill="#B8864B"/>
<path d="M33.7019 101.44C35.9619 101.2 43.8119 98.4899 43.5619 96.2199C43.3119 93.9499 35.0719 92.9999 32.8119 93.2199C32.2735 93.2783 31.7518 93.4422 31.2768 93.7023C30.8017 93.9623 30.3825 94.3134 30.0431 94.7354C29.7037 95.1574 29.4507 95.6422 29.2987 96.162C29.1466 96.6818 29.0985 97.2265 29.1569 97.7649C29.2153 98.3033 29.3792 98.8249 29.6393 99.3C29.8993 99.7751 30.2504 100.194 30.6724 100.534C31.0945 100.873 31.5792 101.126 32.099 101.278C32.6188 101.43 33.1635 101.478 33.7019 101.42V101.44Z" fill="#B8864B"/>
<path d="M58.401 90.4601C56.141 90.7001 48.291 93.4601 48.541 95.6801C48.791 97.9001 57.031 98.9001 59.291 98.6801C59.8372 98.6322 60.3683 98.4758 60.8532 98.2201C61.3382 97.9643 61.7672 97.6143 62.1152 97.1906C62.4631 96.7669 62.723 96.278 62.8796 95.7526C63.0362 95.2272 63.0863 94.6758 63.0271 94.1307C62.9679 93.5857 62.8005 93.0579 62.5347 92.5784C62.2689 92.0989 61.91 91.6772 61.4792 91.3382C61.0483 90.9991 60.5541 90.7494 60.0256 90.6038C59.497 90.4582 58.9447 90.4195 58.401 90.4901V90.4601Z" fill="#B8864B"/>
<path d="M33.3892 91.0799C35.1592 92.5099 42.6292 96.1399 44.0592 94.3699C45.4892 92.5999 40.3292 86.0799 38.5592 84.6499C38.1408 84.2794 37.6515 83.9977 37.1211 83.8219C36.5906 83.646 36.0299 83.5796 35.473 83.6268C34.9162 83.6739 34.3747 83.8336 33.8813 84.0961C33.3879 84.3586 32.953 84.7186 32.6028 85.1541C32.2526 85.5897 31.9944 86.0918 31.8439 86.63C31.6935 87.1682 31.6538 87.7314 31.7273 88.2854C31.8008 88.8394 31.986 89.3728 32.2717 89.8531C32.5574 90.3334 32.9375 90.7508 33.3892 91.0799Z" fill="#B8864B"/>
<path d="M58.7018 100.82C56.9318 99.3899 49.4618 95.7599 48.0418 97.5299C46.6218 99.2999 51.7618 105.82 53.5418 107.24C53.9612 107.597 54.448 107.867 54.9735 108.033C55.4989 108.199 56.0522 108.257 56.6007 108.206C57.1493 108.154 57.6819 107.993 58.167 107.731C58.6521 107.47 59.0799 107.114 59.4251 106.685C59.7702 106.255 60.0257 105.761 60.1765 105.231C60.3273 104.701 60.3702 104.146 60.3028 103.6C60.2353 103.053 60.0589 102.525 59.7839 102.048C59.509 101.57 59.141 101.153 58.7018 100.82Z" fill="#B8864B"/>
<path d="M41.1614 108.58C42.5914 106.81 46.2214 99.34 44.4414 97.92C42.6614 96.5 36.1614 101.64 34.7314 103.42C34.0472 104.273 33.7297 105.362 33.8488 106.449C33.9678 107.536 34.5138 108.531 35.3664 109.215C36.2191 109.899 37.3087 110.217 38.3955 110.098C39.4822 109.979 40.4772 109.433 41.1614 108.58Z" fill="#B8864B"/>
<path d="M50.8889 83.3099C49.4689 85.0899 45.8289 92.5499 47.6089 93.9799C49.3889 95.4099 55.8889 90.2499 57.3189 88.4799C57.6894 88.0615 57.9711 87.5722 58.147 87.0417C58.3228 86.5113 58.3892 85.9506 58.3421 85.3937C58.2949 84.8368 58.1353 84.2953 57.8727 83.802C57.6102 83.3086 57.2502 82.8736 56.8147 82.5234C56.3792 82.1733 55.8771 81.9151 55.3388 81.7646C54.8006 81.6141 54.2374 81.5744 53.6834 81.648C53.1294 81.7215 52.5961 81.9067 52.1158 82.1924C51.6354 82.478 51.218 82.8582 50.8889 83.3099Z" fill="#B8864B"/>
<path d="M41.1704 96.4801C41.2766 97.4386 41.6646 98.3442 42.2851 99.0824C42.9057 99.8206 43.7311 100.358 44.6571 100.628C45.5832 100.897 46.5683 100.886 47.488 100.596C48.4078 100.306 49.2211 99.7504 49.8251 98.9985C50.4291 98.2467 50.7967 97.3327 50.8817 96.372C50.9666 95.4113 50.765 94.447 50.3022 93.6009C49.8395 92.7547 49.1365 92.0646 48.2818 91.6178C47.4272 91.1709 46.4593 90.9873 45.5004 91.0901C44.8617 91.1586 44.2428 91.3524 43.6792 91.6606C43.1157 91.9688 42.6185 92.3852 42.2162 92.886C41.8139 93.3868 41.5144 93.962 41.335 94.5788C41.1555 95.1955 41.0996 95.8417 41.1704 96.4801Z" fill="#825E33"/>
<path d="M41.7004 160.18C36.0704 160.3 26.4304 155.1 22.6404 150.02C18.8504 144.94 29.5804 148.02 28.4604 144.02C27.3404 140.02 14.0504 143.02 11.5804 137.2C9.11038 131.38 18.7104 132.71 18.3204 129.74C17.9304 126.77 7.99039 127.4 4.78039 121.24C1.57039 115.08 10.3304 118.5 8.95039 115.95C7.57038 113.4 -3.41962 102.65 1.16038 100.39C5.74038 98.1301 16.0404 109.32 19.4904 110.57C22.9404 111.82 23.7204 104.06 28.2004 107.75C32.6804 111.44 29.3904 127.66 34.6704 129.75C38.6004 131.33 36.9104 123.92 41.4304 125.75C49.3104 129.02 43.9404 160.13 41.7004 160.18Z" fill="#FFC682"/>
<path d="M49.7499 153.03C49.8399 153.19 48.9999 154.03 51.7499 154.1C58.5999 154.38 70.7499 153.92 75.2599 147.69C81.7599 138.8 66.7799 139.62 68.2599 134.69C69.7399 129.76 85.8099 133.79 88.9499 126.79C92.0899 119.79 80.3799 121.16 80.9499 117.55C81.5199 113.94 93.7699 118.62 97.8199 111.19C101.87 103.76 91.1399 107.74 92.8199 104.66C94.4999 101.58 108.22 88.8001 102.7 85.9401C97.1799 83.0801 84.3899 96.4601 80.1699 97.9401C75.9499 99.4201 74.9699 86.2601 69.4299 90.6501C63.8899 95.0401 67.5199 114.83 61.0499 117.29C56.2299 119.12 58.8599 112.02 52.9099 112.29C44.8399 112.62 42.1799 140.38 49.7499 153.03Z" fill="#FFC682"/>
<path d="M44.621 177.27C44.5621 177.264 44.5051 177.246 44.4533 177.217C44.4015 177.188 44.356 177.15 44.3196 177.103C44.2832 177.056 44.2566 177.003 44.2414 176.945C44.2261 176.888 44.2226 176.828 44.231 176.77C49.851 130.77 76.361 112.05 76.631 111.87C76.6789 111.837 76.7329 111.814 76.7897 111.802C76.8466 111.79 76.9052 111.789 76.9623 111.8C77.0194 111.811 77.0739 111.833 77.1225 111.864C77.1712 111.896 77.2132 111.937 77.246 111.985C77.2788 112.033 77.3019 112.087 77.3139 112.144C77.3259 112.2 77.3265 112.259 77.3159 112.316C77.3052 112.373 77.2834 112.428 77.2516 112.476C77.2199 112.525 77.1789 112.567 77.131 112.6C76.871 112.79 50.691 131.29 45.131 176.88C45.1236 176.939 45.1045 176.996 45.0748 177.048C45.045 177.1 45.0053 177.146 44.9578 177.182C44.9103 177.218 44.8561 177.245 44.7983 177.26C44.7404 177.275 44.6802 177.278 44.621 177.27Z" fill="#263238"/>
<path d="M70.5488 118.26C70.4592 118.258 70.3724 118.228 70.3007 118.174C70.229 118.12 70.1759 118.045 70.1488 117.96C70.1106 117.847 70.1186 117.724 70.1711 117.617C70.2236 117.51 70.3162 117.429 70.4288 117.39C70.5988 117.34 74.5488 116.09 81.0088 117.46C81.1241 117.486 81.2248 117.556 81.29 117.655C81.3551 117.754 81.3798 117.874 81.3588 117.99C81.3347 118.107 81.2654 118.209 81.1661 118.274C81.0668 118.34 80.9455 118.364 80.8288 118.34C74.6088 117.02 70.7488 118.23 70.7088 118.24C70.6573 118.257 70.6029 118.264 70.5488 118.26Z" fill="#263238"/>
<path d="M65.7013 123.85C65.5864 123.847 65.477 123.8 65.3966 123.718C65.3163 123.635 65.2713 123.525 65.2713 123.41C65.1313 109.49 73.1913 98.62 73.2713 98.51C73.3442 98.4195 73.4486 98.3598 73.5636 98.3432C73.6786 98.3265 73.7957 98.3539 73.8913 98.42C73.9386 98.4555 73.9784 98.4999 74.0085 98.5507C74.0387 98.6016 74.0584 98.6579 74.0668 98.7164C74.0752 98.7749 74.0719 98.8345 74.0573 98.8917C74.0426 98.9489 74.0168 99.0027 73.9813 99.05C73.9013 99.15 65.9813 109.8 66.1613 123.4C66.1614 123.518 66.1153 123.631 66.0331 123.715C65.9508 123.799 65.8389 123.847 65.7213 123.85H65.7013Z" fill="#263238"/>
<path d="M57.7609 135.63C57.7039 135.629 57.6478 135.616 57.5962 135.592C57.5445 135.568 57.4984 135.533 57.4609 135.49C57.4189 135.449 57.3855 135.4 57.3627 135.346C57.3399 135.292 57.3281 135.234 57.3281 135.175C57.3281 135.116 57.3399 135.058 57.3627 135.004C57.3855 134.95 57.4189 134.901 57.4609 134.86C57.5209 134.81 63.4609 129.29 71.3009 132.09C71.3977 132.14 71.4731 132.224 71.513 132.325C71.553 132.426 71.5548 132.539 71.5182 132.641C71.4815 132.744 71.4089 132.83 71.3138 132.883C71.2187 132.936 71.1075 132.953 71.0009 132.93C63.7009 130.31 58.1309 135.46 58.0809 135.51C58.0386 135.551 57.9884 135.583 57.9333 135.603C57.8783 135.624 57.8196 135.633 57.7609 135.63Z" fill="#263238"/>
<path d="M53.6283 143.85C53.5449 143.845 53.4645 143.817 53.3958 143.769C53.3271 143.722 53.2726 143.656 53.2383 143.58C51.2615 138.05 50.7685 132.099 51.8083 126.32C51.8168 126.262 51.8368 126.206 51.8672 126.156C51.8976 126.106 51.9377 126.062 51.9853 126.027C52.0328 125.993 52.0867 125.968 52.1439 125.955C52.2011 125.942 52.2604 125.94 52.3183 125.95C52.4344 125.97 52.5382 126.034 52.6074 126.129C52.6766 126.225 52.7056 126.343 52.6883 126.46C51.6992 132.075 52.1709 137.85 54.0583 143.23C54.0814 143.283 54.0938 143.34 54.0948 143.398C54.0957 143.456 54.0852 143.514 54.0639 143.568C54.0425 143.622 54.0107 143.671 53.9702 143.712C53.9298 143.754 53.8816 143.787 53.8283 143.81C53.7652 143.837 53.697 143.851 53.6283 143.85Z" fill="#263238"/>
<path d="M44.7886 193.71C44.6771 193.705 44.5717 193.658 44.4938 193.578C44.4158 193.498 44.3711 193.391 44.3686 193.28L43.7886 181.09C42.0786 140.56 14.2886 113 14.0086 112.73C13.9422 112.644 13.9088 112.538 13.9147 112.429C13.9207 112.321 13.9654 112.219 14.0409 112.141C14.1163 112.063 14.2173 112.015 14.3252 112.006C14.4332 111.996 14.541 112.026 14.6286 112.09C14.9086 112.37 42.9586 140.16 44.6786 181.09L45.2586 193.28C45.2614 193.398 45.2179 193.512 45.1375 193.598C45.0571 193.684 44.9462 193.735 44.8286 193.74L44.7886 193.71Z" fill="#263238"/>
<path d="M25.4684 127.94H25.3984C25.3511 127.937 25.3058 127.919 25.2684 127.89L25.1184 127.84C21.503 126.329 17.6166 125.574 13.6984 125.62C13.5807 125.623 13.4667 125.579 13.3807 125.499C13.2947 125.419 13.2436 125.308 13.2384 125.19C13.2371 125.131 13.2474 125.072 13.2688 125.017C13.2902 124.962 13.3222 124.912 13.3631 124.869C13.404 124.826 13.4528 124.792 13.5069 124.768C13.561 124.744 13.6193 124.731 13.6784 124.73C17.7289 124.682 21.7468 125.458 25.4884 127.01L25.6284 127.07H25.7084C25.7971 127.113 25.8683 127.185 25.9102 127.274C25.952 127.364 25.962 127.464 25.9384 127.56C25.9234 127.671 25.8664 127.773 25.779 127.844C25.6916 127.914 25.5804 127.949 25.4684 127.94Z" fill="#263238"/>
<path d="M29.3981 133.17C29.3397 133.166 29.2827 133.151 29.2305 133.124C29.1784 133.098 29.1321 133.061 29.0947 133.016C29.0573 132.971 29.0294 132.919 29.0128 132.863C28.9961 132.807 28.9911 132.748 28.9981 132.69C30.0681 120.69 23.8781 110.88 23.8081 110.79C23.7513 110.689 23.7354 110.571 23.7637 110.459C23.7919 110.347 23.8621 110.25 23.9597 110.188C24.0573 110.127 24.1749 110.105 24.2882 110.128C24.4014 110.15 24.5016 110.216 24.5681 110.31C24.6281 110.41 30.9881 120.49 29.8781 132.77C29.873 132.828 29.8566 132.884 29.8297 132.936C29.8028 132.987 29.766 133.033 29.7214 133.07C29.6768 133.107 29.6252 133.135 29.5697 133.152C29.5142 133.17 29.4559 133.176 29.3981 133.17Z" fill="#263238"/>
<path d="M33.4583 140.1C33.3451 140.098 33.2373 140.051 33.1583 139.97C31.671 138.624 29.8724 137.669 27.9243 137.191C25.9763 136.712 23.9398 136.726 21.9983 137.23C21.8829 137.26 21.7602 137.244 21.657 137.184C21.5539 137.124 21.4788 137.025 21.4483 136.91C21.4333 136.853 21.4297 136.794 21.4378 136.737C21.4458 136.679 21.4653 136.623 21.4951 136.573C21.5249 136.523 21.5644 136.479 21.6113 136.444C21.6582 136.409 21.7116 136.384 21.7683 136.37C23.8587 135.81 26.0571 135.792 28.1565 136.317C30.2558 136.842 32.187 137.893 33.7683 139.37C33.8103 139.411 33.8437 139.46 33.8665 139.514C33.8893 139.568 33.9011 139.626 33.9011 139.685C33.9011 139.744 33.8893 139.802 33.8665 139.856C33.8437 139.91 33.8103 139.959 33.7683 140C33.7259 140.036 33.6766 140.064 33.6234 140.081C33.5701 140.098 33.514 140.105 33.4583 140.1Z" fill="#263238"/>
<path d="M38.6115 151.52C38.5451 151.519 38.4799 151.502 38.4215 151.47C38.3692 151.444 38.3226 151.407 38.2846 151.362C38.2466 151.318 38.2179 151.266 38.2002 151.21C38.1825 151.154 38.1762 151.095 38.1815 151.037C38.1869 150.978 38.2039 150.922 38.2315 150.87C40.2698 146.265 41.0927 141.214 40.6215 136.2C40.6132 136.082 40.6515 135.966 40.7282 135.876C40.8049 135.786 40.9139 135.73 41.0315 135.72C41.0901 135.714 41.1492 135.721 41.2053 135.739C41.2614 135.756 41.3134 135.785 41.3582 135.823C41.4029 135.862 41.4396 135.908 41.4659 135.961C41.4922 136.014 41.5077 136.071 41.5115 136.13C42.0218 141.311 41.1632 146.535 39.0215 151.28C38.9833 151.355 38.9244 151.417 38.8517 151.46C38.779 151.503 38.6957 151.523 38.6115 151.52Z" fill="#263238"/>
<path d="M69.8616 195.63C69.8616 209.84 63.4616 221.37 44.1016 221.37C25.6216 221.37 18.3516 209.84 18.3516 195.63C18.3478 190.469 19.8985 185.427 22.8016 181.16H65.4116C68.3147 185.427 69.8653 190.469 69.8616 195.63Z" fill="#FFF9F2"/>
</g>
<path d="M167.153 213.449L174.691 212.352L172.784 194.711L165.246 195.816L167.153 213.449Z" fill="#E8BFBF"/>
<path d="M180.487 212.617C181.14 212.567 181.758 212.301 182.242 211.86C182.344 211.732 182.412 211.581 182.443 211.42C182.473 211.259 182.464 211.094 182.416 210.937C182.394 210.84 182.348 210.751 182.282 210.677C182.215 210.603 182.132 210.546 182.038 210.513C181.031 210.15 178.254 212.186 177.966 212.413C177.936 212.436 177.913 212.468 177.9 212.504C177.888 212.541 177.887 212.58 177.898 212.617C177.911 212.651 177.934 212.68 177.963 212.701C177.993 212.721 178.029 212.731 178.065 212.731C178.874 212.765 179.684 212.727 180.487 212.617ZM181.546 210.846C181.658 210.82 181.775 210.82 181.887 210.846C181.926 210.859 181.962 210.881 181.99 210.912C182.017 210.942 182.037 210.98 182.046 211.02C182.077 211.124 182.083 211.234 182.063 211.341C182.043 211.447 181.998 211.548 181.932 211.633C181.546 212.11 180.312 212.39 178.602 212.39C179.498 211.721 180.501 211.209 181.569 210.877L181.546 210.846Z" fill="#407BFF"/>
<path d="M178.11 212.738H178.171C179.011 212.186 180.517 210.263 180.229 209.438C180.171 209.293 180.062 209.173 179.924 209.1C179.786 209.027 179.626 209.004 179.473 209.037C179.292 209.043 179.113 209.085 178.949 209.162C178.785 209.238 178.639 209.348 178.519 209.484C177.709 210.422 177.868 212.511 177.868 212.572C177.869 212.602 177.876 212.632 177.889 212.659C177.902 212.687 177.92 212.711 177.944 212.731C177.969 212.743 177.998 212.751 178.026 212.752C178.055 212.753 178.084 212.749 178.11 212.738ZM179.374 209.393L179.48 209.34C179.813 209.34 179.851 209.454 179.859 209.491C180.04 209.998 179.034 211.474 178.201 212.155C178.126 211.284 178.33 210.412 178.784 209.665C178.944 209.5 179.16 209.4 179.389 209.385L179.374 209.393Z" fill="#407BFF"/>
<path d="M173.889 209.226L167.206 210.823C167.061 210.852 166.932 210.934 166.844 211.053C166.756 211.172 166.715 211.319 166.729 211.466L166.949 221.146C166.971 221.307 167.025 221.461 167.107 221.601C167.189 221.741 167.298 221.863 167.427 221.961C167.556 222.058 167.704 222.129 167.861 222.17C168.017 222.211 168.181 222.22 168.341 222.198C168.389 222.202 168.437 222.202 168.485 222.198C171.376 221.441 172.746 220.987 176.424 220.132C178.695 219.617 185.831 219.072 188.76 217.771C191.689 216.469 190.546 213.502 189.214 213.782C184.916 214.705 179.376 212.866 176.265 210.066C175.872 209.832 174.381 209.113 173.889 209.226Z" fill="#263238"/>
<path opacity="0.2" d="M172.784 194.711L173.768 203.808L166.23 204.913L165.238 195.823L172.784 194.711Z" fill="black"/>
<path d="M176.816 200.069L162.868 202.672C162.868 202.672 156.094 193 154.815 186.136C153.483 178.984 154.906 154.645 154.815 154.35C150.872 141.03 140.148 106.519 134.979 93.8047C132.111 86.7663 130.098 82.0287 130.098 82.0287L131.543 81.7032L142.933 77.0413L151.258 78.6003C151.258 78.6003 176.468 129.587 179.109 148.764C181.054 163.068 176.816 200.069 176.816 200.069Z" fill="#B79469"/>
<path opacity="0.2" d="M151.535 142.786C147.592 129.466 139.631 109.267 134.454 96.5672L131.026 84.4582L130.367 82.1272L131.571 84.3295L145.08 114.254C151.043 125.765 151.626 143.111 151.535 142.786Z" fill="black"/>
<path d="M90.3125 209.294L97.033 212.125L104.2 196.739L97.4795 193.916L90.3125 209.294Z" fill="#E8BFBF"/>
<path d="M101.411 215.349C101.943 215.683 102.573 215.824 103.197 215.75C103.349 215.71 103.488 215.633 103.603 215.526C103.718 215.42 103.805 215.286 103.856 215.137C103.894 215.051 103.91 214.956 103.9 214.862C103.891 214.767 103.857 214.677 103.803 214.6C103.227 213.752 99.9504 213.76 99.5871 213.76C99.5511 213.764 99.5167 213.777 99.4875 213.798C99.4582 213.819 99.4351 213.848 99.4206 213.881C99.4112 213.915 99.412 213.951 99.4227 213.985C99.4335 214.018 99.4537 214.048 99.4811 214.07C100.084 214.555 100.73 214.983 101.411 215.349ZM103.227 214.593C103.332 214.636 103.424 214.707 103.492 214.797C103.511 214.83 103.521 214.868 103.521 214.907C103.521 214.945 103.511 214.983 103.492 215.016C103.457 215.113 103.4 215.201 103.325 215.271C103.25 215.342 103.159 215.395 103.061 215.425C102.486 215.576 101.388 215.092 100.034 214.123C101.113 214.099 102.188 214.26 103.212 214.6L103.227 214.593Z" fill="#407BFF"/>
<path d="M99.5086 214.1H99.5691C100.53 214.153 102.778 213.518 103.028 212.723C103.068 212.575 103.055 212.418 102.99 212.279C102.924 212.14 102.812 212.029 102.672 211.966C102.531 211.867 102.37 211.799 102.2 211.766C102.031 211.734 101.856 211.737 101.688 211.777C100.523 212.034 99.4859 213.722 99.4177 213.79C99.405 213.816 99.3984 213.844 99.3984 213.873C99.3984 213.902 99.405 213.931 99.4177 213.957C99.4193 213.986 99.4285 214.015 99.4444 214.04C99.4603 214.065 99.4824 214.086 99.5086 214.1ZM102.377 212.231H102.483C102.748 212.405 102.702 212.526 102.687 212.564C102.543 213.048 100.939 213.624 99.9097 213.684C100.339 212.968 100.986 212.409 101.756 212.087C101.977 212.05 102.203 212.096 102.392 212.216L102.377 212.231Z" fill="#407BFF"/>
<path d="M98.253 209.015L92.1985 206.472C92.0672 206.406 91.9156 206.393 91.7749 206.435C91.6342 206.477 91.5149 206.572 91.4417 206.699L86.144 214.267C86.0695 214.404 86.0228 214.554 86.0065 214.708C85.9902 214.863 86.0046 215.019 86.0489 215.168C86.0932 215.317 86.1665 215.456 86.2647 215.577C86.3628 215.698 86.4838 215.798 86.6208 215.872L86.7494 215.932C89.3907 217.014 90.7227 217.408 94.0451 218.831C96.0809 219.709 101.908 223.334 104.905 223.977C107.902 224.62 108.689 221.707 107.509 221.154C103.672 219.436 100.448 214.895 99.6077 210.967C99.4185 210.589 98.6768 209.189 98.253 209.015Z" fill="#263238"/>
<path opacity="0.2" d="M104.496 196.921L100.606 204.761L93.9531 201.779L97.8356 193.939L104.496 196.921Z" fill="black"/>
<path d="M105.896 205.465L92.5153 198.336C92.5153 198.336 89.9497 188.808 92.5153 182.73C97.4497 171.038 110.3 153.843 110.384 153.517C113.812 140.061 119.821 103.197 121.88 89.6423C123.015 82.1272 123.688 80.5076 123.688 80.5076L125.104 80.9692L145.538 81.0071C145.538 81.0071 149.397 112.036 134.594 160.018C130.916 171.961 124.756 181.89 114.592 195.324C111.87 198.852 108.968 202.237 105.896 205.465Z" fill="#B79469"/>
<path d="M163.719 55.6766C164.029 53.2171 165.07 50.9075 166.708 49.0469C167.124 48.6079 168.721 47.9419 169.629 47.3516C174.072 44.4379 182.972 40.7976 182.972 40.7976L185.719 43.1891C185.719 43.1891 180.301 48.4263 177.077 50.9389C176.441 51.4384 175.707 52.0363 174.935 52.672C173.527 53.8375 166.928 58.1892 165.671 59.2866L163.719 55.6766Z" fill="#E8BFBF"/>
<path d="M190.795 39.443L185.717 43.227L182.871 41.1307C183.602 40.206 184.388 39.3265 185.225 38.4969C185.482 38.2471 185.687 37.9483 185.827 37.6182C185.968 37.2881 186.041 36.9333 186.042 36.5746C185.985 35.4042 186.246 34.2402 186.799 33.2068C186.798 33.1867 186.798 33.1664 186.799 33.1463C187.058 32.782 187.415 32.499 187.829 32.3302C188.243 32.1615 188.696 32.1141 189.136 32.1934C189.575 32.2728 189.983 32.4757 190.312 32.7785C190.641 33.0812 190.877 33.4713 190.992 33.9031L191.749 36.6125C191.887 37.1257 191.871 37.6686 191.701 38.1724C191.532 38.6763 191.216 39.1185 190.795 39.443Z" fill="#E8BFBF"/>
<path d="M165.337 56.6906L163.997 57.9166C163.581 57.5836 162.923 57.0463 162.09 56.35C155.566 50.9388 139.212 37.8005 145.728 34.0543C151.321 30.8379 157.254 40.6689 160.213 43.628C161.603 45.1091 162.807 46.7533 163.801 48.5246C165.193 51.0372 166.222 54.072 165.337 56.6906Z" fill="#263238"/>
<path d="M163.794 47.3516C161.473 49.0497 159.511 51.1896 158.02 53.6483C158.566 55.4367 159.489 57.0874 160.727 58.4894C161.964 59.8914 163.487 61.0122 165.194 61.7764C167.091 57.475 167.904 52.7743 167.563 48.0857C166.382 47.8132 164.975 47.6089 163.794 47.3516Z" fill="#263238"/>
<path d="M127.879 33.2901C125.541 34.0469 122.869 33.4339 121.371 35.3789C119.872 37.3239 119.426 39.8744 119.426 42.3264C119.564 45.7372 120.087 49.1215 120.985 52.4148C121.923 56.4511 122.864 60.4748 123.808 64.4859C124.451 67.2407 123.77 80.0384 124.459 80.2504C124.459 80.2504 145.854 79.8341 151.22 79.0773C151.22 79.0773 151.681 65.9239 152.113 61.4435C152.211 60.4521 153.717 56.2291 153.891 55.1696C154.731 50.1746 153.089 46.6554 151.363 41.8875C151.363 41.8875 147.579 34.2664 145.725 34.0545C142.433 33.6836 134.38 31.1634 127.879 33.2901Z" fill="#263238"/>
<path d="M126.967 39.5943C126.891 39.1554 123.092 31.4813 119.452 36.8471C114.388 44.3093 114.048 53.6786 114.048 53.6786C114.048 53.6786 110.937 62.7604 113.102 64.7735C115.266 66.7866 117.643 68.0429 119.156 66.9153C120.225 65.9824 121.077 64.828 121.654 63.5323C121.654 63.5323 128.314 47.4046 126.967 39.5943Z" fill="#263238"/>
<path d="M126.73 30.4446C126.361 30.7768 126.072 31.189 125.887 31.6498C125.702 32.1106 125.625 32.6076 125.661 33.1029C125.698 33.5982 125.847 34.0785 126.098 34.5071C126.349 34.9358 126.694 35.3013 127.108 35.5757C126.886 36.3539 126.888 37.1789 127.114 37.956C127.34 38.733 127.781 39.4304 128.386 39.968C128.991 40.5056 129.735 40.8616 130.533 40.995C131.331 41.1284 132.151 41.0338 132.898 40.7221C132.262 41.8724 132.981 43.3936 134.094 44.105C135.267 44.7119 136.558 45.0578 137.878 45.1192C139.202 45.1823 140.474 45.6616 141.51 46.489L145.552 40.6691C146.145 39.9578 146.53 39.096 146.664 38.1792C146.702 37.2634 146.006 36.2493 145.09 36.3174C145.549 35.822 145.805 35.1719 145.806 34.4965C145.807 33.8211 145.554 33.17 145.097 32.6728C144.64 32.1756 144.013 31.8688 143.339 31.8135C142.666 31.7582 141.997 31.9585 141.465 32.3744C141.53 31.9775 141.477 31.5703 141.313 31.2031C141.149 30.8359 140.881 30.5249 140.542 30.3083C139.854 29.8935 139.073 29.6568 138.271 29.6196L126.73 30.4446Z" fill="#263238"/>
<path d="M129.161 20.5681C130.213 24.4279 131.492 31.5495 128.941 34.3648C133.615 36.3824 137.823 39.3427 141.3 43.0606C142.219 42.2159 142.849 41.1039 143.102 39.8818C143.354 38.6596 143.216 37.389 142.708 36.2493C142.41 35.5256 141.97 34.8691 141.414 34.3191C140.857 33.7691 140.196 33.3368 139.469 33.048C136.653 31.8522 136.631 29.0898 137.1 26.4334L129.161 20.5681Z" fill="#E8BFBF"/>
<path opacity="0.2" d="M130.75 27.1448L133.406 27.8637C134.545 28.1732 135.736 28.2428 136.903 28.0681C136.805 28.8864 136.89 29.7162 137.153 30.4975C136.264 30.8408 135.294 30.9184 134.361 30.7209C133.429 30.5234 132.574 30.0593 131.9 29.3849C131.409 28.6987 131.021 27.9439 130.75 27.1448Z" fill="black"/>
<path d="M124.01 17.2759C126.818 23.2093 127.885 25.7825 132.214 27.6745C138.737 30.5277 145.397 25.7598 144.413 19.1074C143.52 13.121 139.07 4.41005 132.146 4.37978C130.621 4.36563 129.118 4.74102 127.779 5.47037C126.441 6.19971 125.31 7.25886 124.495 8.54742C123.681 9.83598 123.208 11.3113 123.123 12.8335C123.038 14.3557 123.343 15.8744 124.01 17.2456V17.2759Z" fill="#E8BFBF"/>
<path d="M127.096 5.93892C125.045 4.98534 122.502 5.76486 120.792 7.26335C119.082 8.76184 117.999 10.9263 117.008 13.0076C116.411 14.1148 115.953 15.2918 115.646 16.5116C115.34 17.7459 115.507 19.0501 116.115 20.167C116.439 20.6889 116.883 21.1263 117.409 21.4434C117.935 21.7605 118.529 21.9481 119.142 21.9909C119.519 22.0142 119.883 22.1399 120.193 22.3547C120.504 22.5694 120.75 22.865 120.905 23.2094C121.061 23.8459 121.061 24.5104 120.905 25.1469C120.762 25.7642 120.762 26.4064 120.905 27.0237C121.112 27.5092 121.45 27.927 121.883 28.2294C122.315 28.5318 122.823 28.7067 123.35 28.7341C124.404 28.7634 125.454 28.5939 126.445 28.2347C126.747 28.1315 127.071 28.1108 127.384 28.1747C127.697 28.2385 127.987 28.3846 128.224 28.5979C128.345 28.7093 128.447 28.8396 128.527 28.9839C128.604 29.1152 128.716 29.2225 128.85 29.2941C128.985 29.3656 129.137 29.3984 129.289 29.389C129.441 29.3796 129.587 29.3283 129.712 29.2408C129.836 29.1532 129.934 29.0329 129.995 28.8931C130.911 26.7135 129.579 23.2397 127.596 20.5681C126.544 19.1605 126.597 19.5162 126.188 17.8058C125.84 16.383 126.362 14.8996 126.998 13.5827C127.853 11.8194 128.943 10.109 128.602 8.00502C128.538 7.56413 128.367 7.14554 128.105 6.78551C127.843 6.42549 127.496 6.13489 127.096 5.93892Z" fill="#263238"/>
<path d="M124.178 23.3529C125.113 24.3446 126.404 24.9245 127.766 24.9649C129.575 25.0103 130.036 23.2848 129.158 21.809C128.401 20.4846 126.479 18.8725 124.844 19.5385C123.21 20.2045 123.043 22.0814 124.178 23.3529Z" fill="#E8BFBF"/>
<path d="M135.292 16.224C135.504 16.7386 135.92 17.0186 136.246 16.8824C136.571 16.7462 136.654 16.2542 136.473 15.7472C136.291 15.2401 135.852 14.9904 135.519 15.0887C135.186 15.1871 135.118 15.7245 135.292 16.224Z" fill="#263238"/>
<path d="M140.855 13.8324C141.059 14.3546 141.476 14.627 141.801 14.4984C142.126 14.3697 142.21 13.8702 142.028 13.3631C141.846 12.8561 141.407 12.6063 141.082 12.7047C140.757 12.8031 140.658 13.3404 140.855 13.8324Z" fill="#263238"/>
<path d="M140.938 12.7954L141.989 11.9705C141.989 11.9705 141.762 13.1435 140.938 12.7954Z" fill="#263238"/>
<path d="M139.414 14.9448C140.701 16.2163 141.684 16.4585 143.062 17.3212C143.048 17.6687 142.924 18.0028 142.708 18.275C142.492 18.5472 142.194 18.7433 141.859 18.8348L139.414 14.9448Z" fill="#ED847E"/>
<path d="M141.271 21.264C141.512 21.1756 141.745 21.0667 141.967 20.9386C142.002 20.9194 142.028 20.8871 142.04 20.8489C142.051 20.8106 142.047 20.7694 142.028 20.7342C142.006 20.7 141.973 20.675 141.934 20.6639C141.894 20.6527 141.853 20.6562 141.816 20.6737C141.237 21.01 140.586 21.2033 139.918 21.2375C139.249 21.2717 138.582 21.1459 137.972 20.8704C137.934 20.8518 137.891 20.8485 137.852 20.8612C137.812 20.874 137.779 20.9017 137.76 20.9386C137.749 20.9563 137.742 20.976 137.74 20.9965C137.737 21.017 137.738 21.0377 137.744 21.0576C137.75 21.0774 137.759 21.0959 137.773 21.1119C137.786 21.1279 137.802 21.141 137.82 21.1505C138.359 21.3988 138.941 21.5367 139.534 21.5562C140.127 21.5757 140.718 21.4764 141.271 21.264Z" fill="#263238"/>
<path d="M135.108 12.0991C135.105 12.1686 135.079 12.2351 135.036 12.2894C134.992 12.3437 134.933 12.383 134.866 12.4019C133.413 12.8333 132.77 14.6723 132.77 14.6723C132.756 14.7131 132.735 14.7508 132.707 14.7833C132.679 14.8158 132.645 14.8425 132.607 14.8618C132.568 14.8811 132.527 14.8927 132.484 14.8959C132.441 14.8991 132.398 14.8939 132.357 14.8804C132.317 14.867 132.279 14.8457 132.246 14.8177C132.214 14.7897 132.187 14.7556 132.168 14.7173C132.149 14.679 132.137 14.6373 132.134 14.5945C132.131 14.5517 132.136 14.5087 132.149 14.468C132.202 14.3923 132.906 12.2808 134.677 11.751C134.761 11.7296 134.85 11.7411 134.926 11.7833C135.002 11.8255 135.059 11.8952 135.086 11.9781C135.104 12.0158 135.111 12.0575 135.108 12.0991Z" fill="#263238"/>
<path d="M141.806 11.2062C141.749 11.2463 141.682 11.2678 141.613 11.2678C141.544 11.2678 141.476 11.2463 141.42 11.2062C140.239 10.2526 138.355 10.7748 138.347 10.7824C138.306 10.7952 138.263 10.7996 138.22 10.7954C138.177 10.7913 138.135 10.7787 138.097 10.7582C138.059 10.7378 138.025 10.71 137.998 10.6765C137.971 10.6429 137.951 10.6043 137.939 10.5629C137.915 10.4796 137.924 10.3903 137.965 10.3141C138.006 10.2378 138.075 10.1804 138.158 10.1542C138.249 10.1542 140.428 9.53363 141.829 10.684C141.894 10.7399 141.936 10.8187 141.946 10.9044C141.956 10.9901 141.933 11.0763 141.882 11.1456C141.86 11.1702 141.834 11.1907 141.806 11.2062Z" fill="#263238"/>
<path d="M135.41 15.1721L136.462 14.3547C136.462 14.3547 136.22 15.5278 135.41 15.1721Z" fill="#263238"/>
<path d="M127.549 4.94739C126.72 5.02035 125.92 5.2803 125.206 5.70767C124.493 6.13504 123.886 6.71866 123.431 7.4146C122.826 8.35305 122.614 9.77586 123.507 10.4419C123.963 10.7198 124.487 10.864 125.021 10.8581C127.291 11.0624 130.16 9.28393 130.16 9.28393C129.274 5.49986 137.168 2.60884 141.058 8.4363C142.2 10.1467 141.89 11.3879 143.79 12.1825C144.683 12.5534 145.863 12.4474 146.439 13.2345C147.385 14.5286 145.561 16.7234 146.719 17.8359C147.513 18.5927 149.315 18.3052 149.428 19.4025C149.473 19.9172 149.14 20.6588 149.632 20.8102C149.905 20.8935 150.162 20.6437 150.336 20.4167C150.809 19.9087 151.156 19.297 151.35 18.6306C151.443 18.2974 151.422 17.9431 151.292 17.6228C151.162 17.3024 150.93 17.0341 150.631 16.8596C150.147 16.6402 148.868 16.8596 148.951 17.4045C148.755 16.2042 148.692 14.986 148.762 13.7718C148.974 12.7577 149.943 11.8722 149.648 10.8732C149.352 9.87425 148.073 9.35961 146.976 9.22338C145.879 9.08716 144.63 8.92824 143.949 8.05033C143.268 7.17243 143.54 5.6588 143.298 4.44033C143.095 3.6788 142.715 2.976 142.189 2.38936C141.663 1.80272 141.006 1.34889 140.271 1.06494C135.843 -0.834662 129.055 -0.562211 127.549 4.94739Z" fill="#263238"/>
<path d="M140.015 25.1089L124.878 32.7148C122.472 33.9207 120.604 35.9841 119.643 38.4985C118.682 41.013 118.698 43.7961 119.687 46.2996L126.967 64.9173C127.95 67.4186 129.83 69.4634 132.24 70.6517C134.65 71.84 137.417 72.0864 140 71.3426L156.271 66.6504C157.714 66.2365 159.055 65.5258 160.207 64.5637C161.359 63.6016 162.298 62.4094 162.963 61.0635C163.627 59.7176 164.004 58.2476 164.067 56.7479C164.131 55.2481 163.88 53.7515 163.332 52.3541L154.894 30.8455C154.35 29.4465 153.52 28.1764 152.457 27.1165C151.394 26.0566 150.122 25.2302 148.721 24.6903C147.321 24.1503 145.823 23.9086 144.324 23.9807C142.825 24.0528 141.357 24.437 140.015 25.1089ZM137.51 57.0767C136.301 57.5504 134.979 57.6551 133.711 57.3775C132.444 57.0999 131.286 56.4525 130.386 55.5171C129.487 54.5818 128.884 53.4006 128.656 52.1229C128.427 50.8452 128.583 49.5284 129.103 48.3391C129.623 47.1499 130.484 46.1415 131.577 45.4417C132.67 44.7418 133.946 44.3819 135.244 44.4074C136.542 44.433 137.803 44.8428 138.867 45.5851C139.932 46.3274 140.753 47.3688 141.226 48.5776C141.544 49.3814 141.7 50.2402 141.686 51.1047C141.671 51.9691 141.486 52.8221 141.141 53.6147C140.795 54.4073 140.297 55.1239 139.674 55.7232C139.051 56.3225 138.315 56.7927 137.51 57.1069V57.0767Z" fill="#407BFF"/>
<path d="M140.015 25.1089L124.878 32.7148C122.472 33.9207 120.604 35.9841 119.643 38.4985C118.682 41.013 118.698 43.7961 119.687 46.2996L126.967 64.9173C127.95 67.4186 129.83 69.4634 132.24 70.6517C134.65 71.84 137.417 72.0864 140 71.3426L156.271 66.6504C157.714 66.2365 159.055 65.5258 160.207 64.5637C161.359 63.6016 162.298 62.4094 162.963 61.0635C163.627 59.7176 164.004 58.2476 164.067 56.7479C164.131 55.2481 163.88 53.7515 163.332 52.3541L154.894 30.8455C154.35 29.4465 153.52 28.1764 152.457 27.1165C151.394 26.0566 150.122 25.2302 148.721 24.6903C147.321 24.1503 145.823 23.9086 144.324 23.9807C142.825 24.0528 141.357 24.437 140.015 25.1089ZM137.51 57.0767C136.301 57.5504 134.979 57.6551 133.711 57.3775C132.444 57.0999 131.286 56.4525 130.386 55.5171C129.487 54.5818 128.884 53.4006 128.656 52.1229C128.427 50.8452 128.583 49.5284 129.103 48.3391C129.623 47.1499 130.484 46.1415 131.577 45.4417C132.67 44.7418 133.946 44.3819 135.244 44.4074C136.542 44.433 137.803 44.8428 138.867 45.5851C139.932 46.3274 140.753 47.3688 141.226 48.5776C141.544 49.3814 141.7 50.2402 141.686 51.1047C141.671 51.9691 141.486 52.8221 141.141 53.6147C140.795 54.4073 140.297 55.1239 139.674 55.7232C139.051 56.3225 138.315 56.7927 137.51 57.1069V57.0767Z" fill="#564837"/>
<path d="M140.166 26.562L125.976 33.6912C123.725 34.8215 121.977 36.7519 121.076 39.104C120.174 41.4561 120.184 44.0602 121.102 46.4056L127.951 63.8577C128.867 66.2093 130.628 68.1339 132.889 69.254C135.15 70.3741 137.749 70.6089 140.174 69.9123L155.431 65.5076C156.782 65.1181 158.037 64.451 159.115 63.5489C160.193 62.6468 161.071 61.5297 161.693 60.2689C162.315 59.0081 162.667 57.6314 162.726 56.2269C162.786 54.8223 162.551 53.4208 162.038 52.112L154.13 31.9202C153.617 30.6093 152.837 29.4198 151.838 28.4276C150.84 27.4355 149.645 26.6625 148.331 26.1583C147.017 25.654 145.612 25.4294 144.206 25.4989C142.8 25.5684 141.424 25.9305 140.166 26.562ZM129.003 53.391C128.53 52.1828 128.426 50.8614 128.704 49.5939C128.982 48.3265 129.629 47.1698 130.564 46.2702C131.499 45.3706 132.68 44.7684 133.957 44.5398C135.235 44.3112 136.551 44.4664 137.74 44.9859C138.929 45.5053 139.937 46.3656 140.638 47.458C141.338 48.5504 141.698 49.8259 141.674 51.1232C141.649 52.4206 141.24 53.6815 140.499 54.7465C139.758 55.8116 138.718 56.633 137.51 57.107C136.708 57.4229 135.851 57.5773 134.989 57.5615C134.126 57.5456 133.276 57.3597 132.485 57.0145C131.695 56.6693 130.981 56.1716 130.383 55.5498C129.786 54.928 129.317 54.1944 129.003 53.391Z" fill="#816E58"/>
<path d="M210.683 19.8111L210.252 20.5679L210.01 21.0069L209.321 22.2556L209.609 25.457C209.624 25.5924 209.609 25.7295 209.563 25.8581C209.517 25.9973 209.44 26.1248 209.34 26.2319C209.239 26.339 209.117 26.4232 208.981 26.4786L203.002 28.8172C202.865 28.8716 202.718 28.8945 202.571 28.884C202.424 28.8735 202.282 28.83 202.154 28.7567C202.07 28.7143 201.993 28.658 201.927 28.5902L198.544 25.1467L193.731 27.0311L194.427 28.8096L189.621 30.6865L190.764 33.6154L187.23 35.0004C187.089 35.0551 186.937 35.0794 186.786 35.0715C186.635 35.0637 186.487 35.024 186.352 34.955C186.26 34.911 186.175 34.8522 186.102 34.7809L184.066 32.8661L179.253 34.743L180.403 37.6719L175.348 39.6548L176.498 42.5912C176.543 42.7055 176.566 42.8275 176.563 42.9504C176.561 43.0732 176.535 43.1944 176.486 43.307C176.436 43.4196 176.365 43.5213 176.276 43.6062C176.188 43.6912 176.083 43.7578 175.968 43.8021L162.126 49.2209L156.117 33.8954L206.203 14.2864L206.96 14.6875L209.495 15.9968C209.83 16.1627 210.127 16.3948 210.37 16.6789C210.612 16.963 210.794 17.2933 210.905 17.6498C211.016 18.0064 211.054 18.3817 211.016 18.7532C210.978 19.1247 210.865 19.4846 210.683 19.8111Z" fill="#816E58"/>
<path d="M210.486 18.0859L156.934 39.0496L155.375 35.1142L206.43 15.1267L208.973 16.4284C209.941 16.9279 210.494 17.3896 210.486 18.0859Z" fill="#816E58"/>
<path d="M209.459 21.0372L208.944 22.2027C208.94 22.2227 208.94 22.2433 208.944 22.2633L209.239 25.4267C209.258 25.5394 209.258 25.6546 209.239 25.7673C209.234 25.7863 209.225 25.8037 209.212 25.8182C209.198 25.8327 209.182 25.8438 209.163 25.8505L202.662 28.4086C202.646 28.4179 202.628 28.4228 202.609 28.4228C202.591 28.4228 202.573 28.4179 202.556 28.4086C202.492 28.3696 202.433 28.3212 202.382 28.2648L198.659 24.5261C198.64 24.5131 198.618 24.5061 198.595 24.5061C198.572 24.5061 198.549 24.5131 198.53 24.5261L193.233 26.5998C193.203 26.6131 193.18 26.6367 193.168 26.6661C193.155 26.6955 193.154 26.7285 193.164 26.7587L193.793 28.3556C193.799 28.3705 193.802 28.3865 193.802 28.4026C193.802 28.4187 193.798 28.4346 193.792 28.4494C193.786 28.4642 193.776 28.4776 193.765 28.4887C193.753 28.4999 193.739 28.5087 193.724 28.5145L189.221 30.2855C189.206 30.2913 189.193 30.3001 189.181 30.3113C189.17 30.3225 189.16 30.3358 189.154 30.3506C189.148 30.3654 189.144 30.3814 189.144 30.3975C189.144 30.4136 189.147 30.4295 189.153 30.4444L190.236 33.1916C190.243 33.2064 190.247 33.2225 190.247 33.2389C190.248 33.2554 190.245 33.2717 190.238 33.2869C190.232 33.302 190.222 33.3155 190.21 33.3265C190.198 33.3375 190.183 33.3457 190.167 33.3506L186.868 34.6523C186.852 34.6616 186.833 34.6665 186.815 34.6665C186.796 34.6665 186.778 34.6616 186.762 34.6523C186.693 34.613 186.629 34.5646 186.573 34.5085L184.151 32.2835C184.132 32.2728 184.111 32.2672 184.09 32.2672C184.069 32.2672 184.048 32.2728 184.03 32.2835L178.785 34.3496C178.769 34.3544 178.755 34.3626 178.743 34.3737C178.73 34.3847 178.721 34.3982 178.714 34.4133C178.708 34.4284 178.705 34.4447 178.705 34.4612C178.705 34.4776 178.71 34.4938 178.717 34.5085L179.822 37.3238C179.829 37.3386 179.833 37.3547 179.834 37.3712C179.834 37.3876 179.831 37.4039 179.824 37.419C179.818 37.4342 179.808 37.4477 179.796 37.4587C179.784 37.4697 179.769 37.4779 179.754 37.4828L159.615 45.4066C159.586 45.4167 159.554 45.4152 159.526 45.4026C159.498 45.3899 159.475 45.367 159.464 45.3385L157.39 40.2451C157.379 40.2149 157.381 40.1819 157.393 40.1525C157.406 40.1231 157.429 40.0995 157.458 40.0862L209.935 19.4328C209.958 19.4243 209.983 19.4227 210.006 19.4284C210.03 19.4341 210.051 19.4468 210.068 19.4647C210.084 19.4826 210.094 19.505 210.098 19.529C210.101 19.553 210.097 19.5775 210.087 19.5993L209.459 21.0372Z" fill="#74634F"/>
<path opacity="0.3" d="M132.315 43.2725C130.802 43.8674 129.498 44.8976 128.57 46.233C127.641 47.5683 127.13 49.1489 127.099 50.7751C127.069 52.4012 127.521 53.9998 128.399 55.369C129.276 56.7382 130.54 57.8165 132.031 58.4676C133.521 59.1187 135.171 59.3135 136.772 59.0272C138.373 58.741 139.853 57.9866 141.026 56.8594C142.198 55.7321 143.01 54.2827 143.359 52.6942C143.708 51.1056 143.578 49.4493 142.986 47.9345C142.594 46.9258 142.007 46.0046 141.257 45.2238C140.508 44.443 139.612 43.818 138.62 43.3848C137.628 42.9515 136.561 42.7186 135.479 42.6993C134.397 42.68 133.322 42.8748 132.315 43.2725ZM137.507 57.1222C136.299 57.5959 134.977 57.7006 133.709 57.423C132.441 57.1454 131.284 56.498 130.384 55.5627C129.484 54.6273 128.882 53.4461 128.653 52.1684C128.425 50.8907 128.58 49.574 129.1 48.3847C129.62 47.1954 130.481 46.1871 131.574 45.4872C132.667 44.7874 133.944 44.4274 135.241 44.453C136.539 44.4785 137.8 44.8883 138.865 45.6307C139.93 46.373 140.75 47.4144 141.223 48.6232C141.852 50.2413 141.814 52.0426 141.117 53.6327C140.421 55.2228 139.123 56.4721 137.507 57.1071V57.1222Z" fill="white"/>
<path opacity="0.1" d="M161.937 62.7226C161.348 63.5267 160.644 64.2405 159.849 64.8417L132.656 28.8249C132.656 28.8249 135.055 27.6216 135.6 27.2583C135.605 27.2984 135.617 27.3372 135.638 27.3718C136.804 29.892 158.176 57.6519 161.937 62.7226Z" fill="white"/>
<path opacity="0.1" d="M157.994 65.977C157.828 66.0526 149.904 68.4669 149.904 68.4669L141.072 56.7741C142.404 55.4421 143.24 53.6929 143.437 51.819C143.635 49.9451 143.184 48.0601 142.158 46.4792C141.133 44.8983 139.596 43.7173 137.804 43.1336C136.013 42.5499 134.075 42.599 132.315 43.2725C131.95 43.4092 131.598 43.579 131.263 43.7796L123.453 33.434C123.453 33.434 130.317 30.1645 131.074 29.6499C131.279 31.1106 157.994 65.6742 157.994 65.977Z" fill="white"/>
<path d="M125.595 9.17043C125.151 9.69731 124.834 10.319 124.668 10.9878C124.502 11.6565 124.492 12.3544 124.638 13.0277C124.784 13.701 125.083 14.3318 125.511 14.8715C125.939 15.4112 126.486 15.8454 127.108 16.1407C127.759 16.4434 128.471 16.5872 129.106 16.8975C129.438 17.0314 129.731 17.2463 129.959 17.5226C130.186 17.7989 130.34 18.1278 130.408 18.4792C130.484 19.2361 129.901 19.9929 129.962 20.7497C130.027 21.104 130.164 21.441 130.366 21.7393C130.568 22.0376 130.83 22.2908 131.135 22.4828C131.748 22.8659 132.265 23.3835 132.648 23.9964C132.734 24.1521 132.787 24.3238 132.804 24.5009C132.821 24.678 132.801 24.8566 132.745 25.0256C132.69 25.1946 132.6 25.3504 132.482 25.4832C132.364 25.6161 132.219 25.7231 132.058 25.7976C131.976 25.9419 131.933 26.1049 131.933 26.2706C131.933 26.4364 131.976 26.5993 132.058 26.7436C132.155 26.842 132.282 26.9051 132.419 26.9229C132.557 26.9407 132.696 26.9123 132.815 26.842C133.353 26.5057 133.8 26.0416 134.115 25.491C134.431 24.9404 134.605 24.3204 134.624 23.6861C134.616 23.0575 134.432 22.4437 134.092 21.915C133.752 21.3863 133.27 20.964 132.701 20.6967C132.629 20.4702 132.603 20.2315 132.625 19.9949C132.648 19.7583 132.717 19.5285 132.83 19.3193C133.17 18.4565 133.519 17.5862 133.867 16.7234C133.923 16.5118 133.932 16.2906 133.894 16.075C133.856 15.8594 133.772 15.6546 133.647 15.4747C133.389 15.2149 133.076 15.0158 132.731 14.8919L130.499 13.9384C129.659 13.5751 127.154 10.23 130.12 9.25368C129.942 8.875 129.662 8.55302 129.313 8.3233C128.963 8.09358 128.556 7.96506 128.138 7.95196C127.646 7.92815 127.156 8.02706 126.712 8.23977C126.268 8.45248 125.884 8.77231 125.595 9.17043Z" fill="#263238"/>
<path d="M129.645 5.5682L129.418 8.20948C130.175 6.99858 131.529 4.64489 131.484 4.73571C130.901 5.05357 130.228 5.25033 129.645 5.5682Z" fill="#263238"/>
<path d="M130.645 7.0132L133.747 4.14488C133.344 4.00497 132.909 3.98188 132.492 4.07828C132.076 4.17467 131.695 4.38664 131.394 4.68979C131.416 4.62167 130.932 6.08989 130.645 7.0132Z" fill="#263238"/>
<path d="M124.339 78.6154C120.305 83.6255 121.644 87.4626 116.074 96.3324C123.105 101.539 130.809 102.387 140.383 101.63C141.518 99.6246 142.086 97.5358 143.221 95.5302C144.841 97.5434 146.142 99.231 147.762 101.252C152.78 100.495 158.743 99.0494 162.709 96.4914C159.205 92.4727 157.025 87.455 154.785 83.0277C153.733 80.9464 154.172 80.0761 151.38 77.3516C142.487 77.7602 133.67 77.9721 124.785 78.3884C125.027 78.4262 124.104 78.6003 124.339 78.6154Z" fill="#263238"/>
<path d="M125.453 77.7756L124.901 80.1142C124.817 80.3034 125.037 80.4775 125.332 80.4548L149.845 79.3725C149.939 79.3838 150.033 79.3619 150.112 79.3107C150.191 79.2596 150.249 79.1823 150.277 79.0925L150.405 76.7691C150.405 76.6177 150.201 76.4815 149.944 76.5042L125.869 77.5637C125.788 77.5604 125.706 77.5781 125.633 77.6152C125.561 77.6523 125.498 77.7076 125.453 77.7756Z" fill="#407BFF"/>
<path d="M125.453 77.7756L124.901 80.1142C124.817 80.3034 125.037 80.4775 125.332 80.4548L149.845 79.3725C149.939 79.3838 150.033 79.3619 150.112 79.3107C150.191 79.2596 150.249 79.1823 150.277 79.0925L150.405 76.7691C150.405 76.6177 150.201 76.4815 149.944 76.5042L125.869 77.5637C125.788 77.5604 125.706 77.5781 125.633 77.6152C125.561 77.6523 125.498 77.7076 125.453 77.7756Z" fill="#407BFF"/>
<path d="M130.848 80.4621H130.137C130.001 80.4621 129.887 80.4015 129.895 80.3183L130.084 77.291C130.084 77.2002 130.213 77.1245 130.349 77.1245L131.068 77.0867C131.197 77.0867 131.31 77.1472 131.303 77.238L131.113 80.2653C131.106 80.3561 130.985 80.4545 130.848 80.4621Z" fill="#263238"/>
<path d="M148.544 79.6979H147.832C147.696 79.6979 147.583 79.6374 147.59 79.5541L147.779 76.5268C147.779 76.436 147.908 76.3528 148.044 76.3528H148.756C148.892 76.3528 148.998 76.4133 148.99 76.4966L148.801 79.5238C148.801 79.5995 148.688 79.6903 148.544 79.6979Z" fill="#263238"/>
<path d="M134.012 65.7648C134.057 65.9843 135.957 69.0116 137.455 68.7921C137.668 68.7627 137.885 68.7899 138.085 68.8709C138.284 68.9519 138.458 69.084 138.59 69.2537C139.188 70.0106 139.552 70.4798 139.953 70.9944C140.271 71.4006 140.718 71.6863 141.22 71.8046C141.722 71.9229 142.249 71.8667 142.715 71.6453C142.995 71.5166 143.275 71.3728 143.555 71.2214C144.007 70.9852 144.367 70.6036 144.575 70.1381C144.784 69.6727 144.83 69.1506 144.705 68.6559C144.428 67.54 143.997 66.4678 143.426 65.4697C143.258 65.1143 142.996 64.811 142.67 64.5918C141.097 63.9899 139.45 63.603 137.773 63.4414C136.486 63.4944 135.23 65.2199 134.012 65.7648Z" fill="#E8BFBF"/>
<path d="M137.847 63.3507C137.847 63.3507 117.731 57.2584 113.387 61.3149C110.836 63.6988 112.04 65.9541 113.47 67.3694C114.53 68.4516 116.838 68.1867 118.352 68.1262L134.199 66.5672L137.847 63.3507Z" fill="#E8BFBF"/>
<path d="M126.286 60.5656C126.196 60.0241 125.972 59.5137 125.635 59.0804C125.298 58.647 124.859 58.3043 124.357 58.0832C123.349 57.6563 122.277 57.4006 121.185 57.3264L113.617 56.3652C112.257 58.0427 111.493 60.1245 111.445 62.2835C111.499 64.3715 112.262 66.3788 113.61 67.9748C114.821 65.6362 116.418 63.2295 118.779 62.064C121.14 60.8985 123.698 60.0963 126.286 60.5656Z" fill="#263238"/>
<defs>
<clipPath id="clip0_2014_5082">
<rect width="104.01" height="142.37" fill="white" transform="translate(0 79)"/>
</clipPath>
</defs>
</svg>
