<svg width="119" height="145" viewBox="0 0 119 145" fill="none" xmlns="http://www.w3.org/2000/svg">
<path d="M116.441 1.823H57.3443C50.778 1.87514 34.55 4.70101 22.1678 15.5874C16.1227 19.7063 2 33.8878 2 58.2883C2 68.4552 6.12737 90.3844 22.0115 102.397C26.2848 106.516 39.2714 115.129 57.0316 116.631H116.441V59.5396" stroke="#E6BE8F" stroke-width="3.58763"/>
<path d="M116.441 10.2595H57.6211C52.0229 10.304 38.1874 12.7146 27.6309 22.001C22.477 25.5146 10.4365 37.6119 10.4365 58.4264C10.4365 67.0991 13.9554 85.8055 27.4976 96.0526C31.1409 99.5662 42.2128 106.914 57.3545 108.194H108.005V59.4938" stroke="#E6BE8F" stroke-width="3.58763"/>
<path d="M116.441 18.4512L57.8893 18.4512C53.2311 18.4882 41.7189 20.4955 32.935 28.2284C28.6466 31.1542 18.6279 41.2278 18.6279 58.5602C18.6279 65.782 21.5559 81.359 32.8241 89.8919C35.8556 92.8176 45.0683 98.9358 57.6674 100.002H99.8124V59.449" stroke="#E6BE8F" stroke-width="3.58763"/>
<path d="M116.44 27.0098L58.1689 27.0098C54.4929 27.039 45.408 28.625 38.4761 34.7348C35.0918 37.0465 27.1855 45.0057 27.1855 58.7001C27.1855 64.4061 29.4962 76.7135 38.3886 83.4554C40.7809 85.7671 48.0512 90.6011 57.9938 91.4438H91.2528V59.4024" stroke="#E6BE8F" stroke-width="3.58763"/>
<path d="M116.44 35.813H58.4581C55.7923 35.8343 49.204 36.9869 44.1771 41.4272C41.7228 43.1072 35.9893 48.8916 35.9893 58.8441C35.9893 62.991 37.6649 71.9355 44.1136 76.8352C45.8485 78.5152 51.1208 82.0283 58.3312 82.6408H82.4503V59.3545" stroke="#E6BE8F" stroke-width="3.58763"/>
<path d="M116.44 45.4722H58.7702C57.1988 45.4847 53.3151 46.1618 50.3519 48.7703C48.9052 49.7573 45.5254 53.1554 45.5254 59.0022C45.5254 61.4383 46.5131 66.6929 50.3145 69.5714C51.3371 70.5583 54.445 72.6222 58.6954 72.982H72.9129V59.302" stroke="#E6BE8F" stroke-width="3.58763"/>
<path d="M8.30427 143.343C7.21732 143.343 6.26496 143.104 5.44716 142.628C4.62937 142.152 3.99273 141.5 3.53725 140.672C3.08177 139.833 2.85403 138.871 2.85403 137.784C2.85403 136.945 2.99378 136.184 3.27328 135.501C3.55278 134.807 3.93579 134.217 4.42233 133.731C4.91922 133.234 5.49374 132.856 6.14591 132.597C6.79808 132.328 7.502 132.194 8.25768 132.194C9.13759 132.194 9.87775 132.302 10.4782 132.52C11.0889 132.737 11.6376 133.001 12.1241 133.312C12.1966 133.353 12.2638 133.42 12.326 133.513C12.3984 133.607 12.4346 133.726 12.4346 133.871C12.4346 134.036 12.3777 134.186 12.2638 134.321C12.15 134.445 11.9895 134.507 11.7825 134.507C11.6686 134.507 11.5599 134.481 11.4564 134.43C11.0009 134.16 10.5299 133.948 10.0434 133.793C9.55684 133.638 9.01337 133.56 8.41296 133.56C7.63657 133.56 6.93265 133.726 6.30119 134.057C5.68008 134.378 5.18319 134.854 4.81052 135.485C4.44821 136.107 4.26705 136.873 4.26705 137.784C4.26705 138.581 4.43268 139.3 4.76394 139.942C5.0952 140.573 5.57656 141.075 6.20802 141.448C6.83948 141.821 7.60034 142.007 8.4906 142.007C9.03925 142.007 9.54131 141.945 9.99679 141.821C10.4523 141.686 10.856 141.521 11.208 141.324V138.513H8.64588C8.4699 138.513 8.31979 138.451 8.19557 138.327C8.07135 138.203 8.00924 138.053 8.00924 137.877C8.00924 137.701 8.07135 137.551 8.19557 137.426C8.31979 137.302 8.4699 137.24 8.64588 137.24H11.7048C11.9119 137.24 12.0879 137.313 12.2328 137.458C12.3777 137.602 12.4502 137.778 12.4502 137.985V141.51C12.4502 141.728 12.3932 141.924 12.2794 142.1C12.1759 142.266 12.0361 142.39 11.8601 142.473C11.3529 142.732 10.7991 142.944 10.1987 143.11C9.6086 143.265 8.97714 143.343 8.30427 143.343ZM24.9164 143.343C24.3988 143.343 23.8761 143.26 23.3481 143.094C22.8202 142.928 22.3388 142.675 21.904 142.333C21.4693 141.981 21.1173 141.541 20.8481 141.013C20.5893 140.475 20.4599 139.844 20.4599 139.119V132.986C20.4599 132.789 20.5272 132.623 20.6618 132.489C20.7964 132.344 20.962 132.271 21.1587 132.271C21.3554 132.271 21.521 132.344 21.6556 132.489C21.8005 132.623 21.873 132.789 21.873 132.986V139.166C21.873 139.807 22.0179 140.346 22.3078 140.78C22.608 141.205 22.991 141.526 23.4568 141.743C23.9226 141.95 24.4092 142.054 24.9164 142.054C25.4237 142.054 25.9102 141.95 26.376 141.743C26.8419 141.526 27.2197 141.205 27.5095 140.78C27.8098 140.346 27.9599 139.807 27.9599 139.166V132.986C27.9599 132.789 28.0271 132.623 28.1617 132.489C28.2963 132.344 28.4619 132.271 28.6586 132.271C28.8553 132.271 29.0209 132.344 29.1555 132.489C29.3004 132.623 29.3729 132.789 29.3729 132.986V139.119C29.3729 139.844 29.2383 140.475 28.9692 141.013C28.7104 141.541 28.3636 141.981 27.9288 142.333C27.494 142.675 27.0127 142.928 26.4847 143.094C25.9568 143.26 25.434 143.343 24.9164 143.343ZM38.5624 143.187C38.2932 143.187 38.0603 143.094 37.8636 142.908C37.6773 142.711 37.5841 142.478 37.5841 142.209V132.986C37.5841 132.789 37.6514 132.623 37.786 132.489C37.9206 132.344 38.0862 132.271 38.2829 132.271C38.4796 132.271 38.6452 132.344 38.7798 132.489C38.9247 132.623 38.9972 132.789 38.9972 132.986V141.774H44.0747C44.2714 141.774 44.4371 141.847 44.5716 141.992C44.7166 142.126 44.789 142.292 44.789 142.489C44.789 142.685 44.7166 142.851 44.5716 142.985C44.4371 143.12 44.2714 143.187 44.0747 143.187H38.5624ZM52.7885 143.187C52.5193 143.187 52.2864 143.094 52.0897 142.908C51.9034 142.711 51.8102 142.478 51.8102 142.209V132.986C51.8102 132.789 51.8775 132.623 52.0121 132.489C52.1467 132.344 52.3123 132.271 52.509 132.271C52.7057 132.271 52.8713 132.344 53.0059 132.489C53.1508 132.623 53.2233 132.789 53.2233 132.986V141.774H58.3008C58.4975 141.774 58.6631 141.847 58.7977 141.992C58.9426 142.126 59.0151 142.292 59.0151 142.489C59.0151 142.685 58.9426 142.851 58.7977 142.985C58.6631 143.12 58.4975 143.187 58.3008 143.187H52.7885ZM66.7351 143.265C66.5384 143.265 66.3728 143.198 66.2382 143.063C66.1036 142.928 66.0363 142.763 66.0363 142.566V132.986C66.0363 132.789 66.1036 132.623 66.2382 132.489C66.3728 132.344 66.5384 132.271 66.7351 132.271C66.9318 132.271 67.0974 132.344 67.232 132.489C67.3769 132.623 67.4493 132.789 67.4493 132.986V142.566C67.4493 142.763 67.3769 142.928 67.232 143.063C67.0974 143.198 66.9318 143.265 66.7351 143.265ZM79.2063 143.265C79.0096 143.265 78.8388 143.198 78.6939 143.063C78.5593 142.928 78.492 142.763 78.492 142.566V138.607L74.7809 133.405C74.6981 133.27 74.6567 133.13 74.6567 132.986C74.6567 132.789 74.7188 132.623 74.843 132.489C74.9776 132.344 75.1432 132.271 75.3399 132.271C75.5987 132.271 75.8057 132.39 75.961 132.628L79.2063 137.349L82.4516 132.628C82.6069 132.39 82.8139 132.271 83.0727 132.271C83.2797 132.271 83.4454 132.344 83.5696 132.489C83.7042 132.623 83.7663 132.789 83.7559 132.986C83.7559 133.13 83.7145 133.27 83.6317 133.405L79.905 138.607V142.566C79.905 142.763 79.8377 142.928 79.7032 143.063C79.5686 143.198 79.403 143.265 79.2063 143.265ZM89.9841 143.265C89.7667 143.265 89.5959 143.198 89.4717 143.063C89.3475 142.928 89.2854 142.763 89.2854 142.566C89.2854 142.483 89.3112 142.38 89.363 142.256L93.3226 132.908C93.395 132.742 93.5037 132.597 93.6487 132.473C93.8039 132.339 93.9955 132.271 94.2232 132.271H94.3785C94.6166 132.271 94.8081 132.339 94.953 132.473C95.0979 132.597 95.2066 132.742 95.2791 132.908L99.2387 142.256C99.2904 142.38 99.3163 142.483 99.3163 142.566C99.3163 142.763 99.2542 142.928 99.13 143.063C99.0057 143.198 98.8349 143.265 98.6175 143.265C98.2966 143.265 98.0741 143.12 97.9499 142.83L96.9405 140.408H91.6611L90.6518 142.83C90.5276 143.12 90.305 143.265 89.9841 143.265ZM92.2046 139.119H96.3971L94.3008 134.072L92.2046 139.119ZM107.579 143.265C107.382 143.265 107.216 143.198 107.082 143.063C106.947 142.928 106.88 142.763 106.88 142.566V133.296C106.88 133.017 106.978 132.778 107.175 132.582C107.371 132.375 107.61 132.271 107.889 132.271H108.091C108.267 132.271 108.427 132.313 108.572 132.395C108.717 132.478 108.841 132.592 108.945 132.737L114.923 141.371V132.986C114.923 132.789 114.99 132.623 115.125 132.489C115.26 132.344 115.425 132.271 115.622 132.271C115.819 132.271 115.984 132.344 116.119 132.489C116.264 132.623 116.336 132.789 116.336 132.986V142.256C116.336 142.535 116.233 142.773 116.026 142.97C115.829 143.167 115.591 143.265 115.311 143.265H115.125C114.959 143.265 114.804 143.229 114.659 143.156C114.514 143.073 114.395 142.97 114.302 142.846L108.293 134.166V142.566C108.293 142.763 108.22 142.928 108.075 143.063C107.941 143.198 107.775 143.265 107.579 143.265Z" fill="black"/>
</svg>
