<svg width="111" height="110" viewBox="0 0 111 110" fill="none" xmlns="http://www.w3.org/2000/svg">
<path d="M109.699 55C109.699 84.8199 85.4332 109 55.4924 109C25.5516 109 1.28613 84.8199 1.28613 55C1.28613 25.1801 25.5516 1 55.4924 1C85.4332 1 109.699 25.1801 109.699 55Z" stroke="#584940" stroke-width="2"/>
<path d="M81.828 50.2494C81.4227 49.04 80.4777 48.0988 79.2619 47.6956V42.9913C79.1946 29.7523 68.3902 19 55.155 19C41.9198 19 31.1161 29.7526 31.1161 42.9236V47.6279C29.9008 48.0313 28.9551 48.9718 28.55 50.1817C24.8358 50.7195 22 53.878 22 57.7083V61.4716C22 65.3024 24.8364 68.4609 28.55 68.9981C29.1576 70.6784 30.7109 71.8209 32.5343 71.8209C34.8975 71.8209 36.7881 69.9394 36.7881 67.5875V51.4589C36.7881 50.3839 36.3829 49.3759 35.6401 48.6361C35.1676 48.0983 34.56 47.695 33.8845 47.4936V42.7893C33.8845 31.1632 43.4059 21.6205 55.1553 21.6205C66.8375 21.6205 76.4261 31.0962 76.4261 42.7893V47.4936C75.7507 47.7625 75.1431 48.0983 74.6705 48.6361C73.995 49.3753 73.5225 50.3833 73.5225 51.4589V67.5875C73.5225 69.4022 74.6705 70.9474 76.291 71.5527C75.6834 76.9287 71.1593 81.0953 65.5545 81.0953H62.3135H62.2463C61.7059 79.8859 60.4906 79.0123 59.0724 79.0123L52.0494 79.0111C50.0909 79.0111 48.5382 80.5569 48.5382 82.5056C48.5382 84.4547 50.0914 86 52.0494 86H59.0724C60.4906 86 61.7058 85.1264 62.2463 83.917H62.3135H65.5545C72.6448 83.917 78.5199 78.4734 79.0596 71.5517C80.2748 71.1483 81.2877 70.2078 81.693 68.9309C85.4071 68.3932 88.2429 65.2346 88.2429 61.4044V57.6411C88.3786 54.0123 85.475 50.7861 81.8281 50.249L81.828 50.2494ZM85.5421 61.6067C85.5421 63.824 84.0567 65.6388 82.0982 66.2435V53.139C84.124 53.7437 85.5421 55.6254 85.5421 57.7758V61.6067ZM79.2625 51.6602V67.7888C79.2625 68.5955 78.587 69.2002 77.8443 69.2002C77.1016 69.2002 76.4261 68.5279 76.4261 67.7888V51.6602C76.4261 50.8536 77.1016 50.2489 77.8443 50.2489C78.587 50.2494 79.2625 50.8541 79.2625 51.6602ZM33.9513 51.6602V67.7888C33.9513 68.5955 33.2758 69.2002 32.5331 69.2002C31.7904 69.2002 31.115 68.5279 31.115 67.7888V51.6602C31.115 50.8536 31.7904 50.2489 32.5331 50.2489C33.2764 50.2494 33.9513 50.8541 33.9513 51.6602ZM24.768 57.8429C24.768 55.6255 26.2534 53.8108 28.2119 53.2061V66.3106C26.1862 65.7059 24.768 63.8242 24.768 61.6738V57.8429ZM59.0718 83.3808H52.0494C51.6442 83.3808 51.374 83.045 51.374 82.7086C51.374 82.3053 51.7114 82.0364 52.0494 82.0364H59.0724C59.4777 82.0364 59.7479 82.3722 59.7479 82.7086C59.7473 83.1119 59.4771 83.3808 59.0718 83.3808Z" fill="#584940"/>
<rect x="44" y="26" width="50" height="31" rx="5" fill="#E9C69D"/>
<path d="M56 63L48.2058 56.25L63.7942 56.25L56 63Z" fill="#E9C69D"/>
<circle cx="56.5" cy="41.5" r="3.5" fill="white"/>
<circle cx="69.5" cy="41.5" r="3.5" fill="white"/>
<circle cx="81.5" cy="41.5" r="3.5" fill="white"/>
</svg>
