<svg width="17" height="18" viewBox="0 0 17 18" fill="none" xmlns="http://www.w3.org/2000/svg">
<path d="M14.3906 2.11028H12.0954C11.9733 1.51506 11.6533 0.980621 11.1891 0.596607C10.7248 0.212368 10.1445 0.00179686 9.54553 0H6.7689C6.16965 0.00120328 5.58902 0.211572 5.12476 0.595786C4.66031 0.980226 4.34053 1.51485 4.21879 2.11028H2.60941C1.94317 2.10767 1.30126 2.36436 0.815851 2.82743C0.330449 3.29068 0.0383513 3.925 0 4.6H1.06529C1.09869 4.23862 1.2562 3.90072 1.51017 3.64541C1.79971 3.35021 2.19341 3.18456 2.60389 3.18537H14.3906C14.8009 3.18457 15.1946 3.35021 15.4841 3.64541C15.7383 3.9007 15.8956 4.23863 15.929 4.6H17C16.9617 3.925 16.6695 3.29066 16.1841 2.82743C15.6987 2.36438 15.0568 2.10766 14.3906 2.11028ZM5.3239 2.11028H5.3237C5.40157 1.8953 5.52332 1.69937 5.68083 1.53513C5.97156 1.24013 6.36605 1.07448 6.77734 1.07529H9.54845H9.54825C9.86546 1.07449 10.1752 1.17336 10.4348 1.35805C10.6943 1.54295 10.8916 1.80446 10.9989 2.10729L5.3239 2.11028Z" fill="black"/>
<path d="M13.9244 16.1238H3.07573V4.6001H2.00003V16.6547C1.99843 16.7983 2.05426 16.9366 2.1549 17.0389C2.25555 17.1414 2.39281 17.1993 2.53628 17.2001H14.4637C14.7603 17.1985 15 16.9574 15 16.6606V4.60592H13.9243L13.9244 16.1238Z" fill="black"/>
<path d="M4.80078 6.19995H5.80078V14.6H4.80078V6.19995Z" fill="black"/>
<path d="M7.99805 6.19995H8.99805V14.6H7.99805V6.19995Z" fill="black"/>
<path d="M11.2012 6.19995H12.2012V14.6H11.2012V6.19995Z" fill="black"/>
</svg>
