<svg width="20" height="19" viewBox="0 0 20 19" fill="none" xmlns="http://www.w3.org/2000/svg">
<path d="M10 9.17874C8.625 9.17874 7.5 8.7504 6.625 7.89372C5.75 7.03704 5.3125 5.93559 5.3125 4.58937C5.3125 3.24316 5.75 2.14171 6.625 1.28502C7.5 0.428341 8.625 0 10 0C11.375 0 12.5 0.428341 13.375 1.28502C14.25 2.14171 14.6875 3.24316 14.6875 4.58937C14.6875 5.93559 14.25 7.03704 13.375 7.89372C12.5 8.7504 11.375 9.17874 10 9.17874ZM0 19V16.124C0 15.3489 0.197917 14.686 0.59375 14.1353C0.989583 13.5845 1.5 13.1664 2.125 12.8808C3.52083 12.2689 4.85938 11.81 6.14062 11.504C7.42188 11.1981 8.70833 11.0451 10 11.0451C11.2917 11.0451 12.5729 11.2032 13.8438 11.5193C15.1146 11.8355 16.4471 12.2913 17.8413 12.8868C18.4934 13.1749 19.0162 13.5927 19.4097 14.1402C19.8032 14.6876 20 15.3489 20 16.124V19H0ZM1.875 17.1643H18.125V16.124C18.125 15.7976 18.026 15.4866 17.8281 15.1908C17.6302 14.8951 17.3854 14.6758 17.0938 14.533C15.7604 13.9007 14.5417 13.4673 13.4375 13.2327C12.3333 12.9981 11.1875 12.8808 10 12.8808C8.8125 12.8808 7.65625 12.9981 6.53125 13.2327C5.40625 13.4673 4.1875 13.9007 2.875 14.533C2.58333 14.6758 2.34375 14.8951 2.15625 15.1908C1.96875 15.4866 1.875 15.7976 1.875 16.124V17.1643ZM10 7.343C10.8125 7.343 11.4844 7.08293 12.0156 6.5628C12.5469 6.04267 12.8125 5.38486 12.8125 4.58937C12.8125 3.79388 12.5469 3.13607 12.0156 2.61594C11.4844 2.09581 10.8125 1.83575 10 1.83575C9.1875 1.83575 8.51562 2.09581 7.98438 2.61594C7.45312 3.13607 7.1875 3.79388 7.1875 4.58937C7.1875 5.38486 7.45312 6.04267 7.98438 6.5628C8.51562 7.08293 9.1875 7.343 10 7.343Z" fill="#333333"/>
</svg>
